{
  "accessors": [
    {
      "bufferView": 2,
      "componentType": 5126,
      "count": 12587,
      "max": [
        6.466455459594727,
        6.466455459594727,
        3.9916696548461914
      ],
      "min": [
        -6.466455459594727,
        -6.466455459594727,
        -4.999999523162842
      ],
      "type": "VEC3"
    },
    {
      "bufferView": 2,
      "byteOffset": 151044,
      "componentType": 5126,
      "count": 12587,
      "max": [
        0.9999915957450867,
        0.9999915957450867,
        1.0
      ],
      "min": [
        -0.9999915957450867,
        -0.9999915957450867,
        -1.0
      ],
      "type": "VEC3"
    },
    {
      "bufferView": 1,
      "componentType": 5126,
      "count": 12587,
      "max": [
        0.9632502198219299,
        1.0000001192092896
      ],
      "min": [
        -1.7809347330199898e-09,
        -4.965076350060826e-09
      ],
      "type": "VEC2"
    },
    {
      "bufferView": 1,
      "byteOffset": 100696,
      "componentType": 5126,
      "count": 12587,
      "max": [
        0.9632502198219299,
        1.0000001192092896
      ],
      "min": [
        -1.7809347330199898e-09,
        -4.965076350060826e-09
      ],
      "type": "VEC2"
    },
    {
      "bufferView": 1,
      "byteOffset": 201392,
      "componentType": 5126,
      "count": 12587,
      "max": [
        0.9632502198219299,
        1.0000001192092896
      ],
      "min": [
        -1.7809347330199898e-09,
        -4.965076350060826e-09
      ],
      "type": "VEC2"
    },
    {
      "bufferView": 1,
      "byteOffset": 302088,
      "componentType": 5126,
      "count": 12587,
      "max": [
        0.9632502198219299,
        1.0000001192092896
      ],
      "min": [
        -1.7809347330199898e-09,
        -4.965076350060826e-09
      ],
      "type": "VEC2"
    },
    {
      "bufferView": 1,
      "byteOffset": 402784,
      "componentType": 5126,
      "count": 12587,
      "max": [
        0.9632502198219299,
        1.0000001192092896
      ],
      "min": [
        -1.7809347330199898e-09,
        -4.965076350060826e-09
      ],
      "type": "VEC2"
    },
    {
      "bufferView": 1,
      "byteOffset": 503480,
      "componentType": 5126,
      "count": 12587,
      "max": [
        0.9632502198219299,
        1.0000001192092896
      ],
      "min": [
        -1.7809347330199898e-09,
        -4.965076350060826e-09
      ],
      "type": "VEC2"
    },
    {
      "bufferView": 1,
      "byteOffset": 604176,
      "componentType": 5126,
      "count": 12587,
      "max": [
        0.9632502198219299,
        1.0000001192092896
      ],
      "min": [
        -1.7809347330199898e-09,
        -4.965076350060826e-09
      ],
      "type": "VEC2"
    },
    {
      "bufferView": 1,
      "byteOffset": 704872,
      "componentType": 5126,
      "count": 12587,
      "max": [
        0.9632502198219299,
        1.0000001192092896
      ],
      "min": [
        -1.7809347330199898e-09,
        -4.965076350060826e-09
      ],
      "type": "VEC2"
    },
    {
      "bufferView": 1,
      "byteOffset": 805568,
      "componentType": 5126,
      "count": 12587,
      "max": [
        0.9632502198219299,
        1.0000001192092896
      ],
      "min": [
        -1.7809347330199898e-09,
        -4.965076350060826e-09
      ],
      "type": "VEC2"
    },
    {
      "bufferView": 1,
      "byteOffset": 906264,
      "componentType": 5126,
      "count": 12587,
      "max": [
        0.9632502198219299,
        1.0000001192092896
      ],
      "min": [
        -1.7809347330199898e-09,
        -4.965076350060826e-09
      ],
      "type": "VEC2"
    },
    {
      "bufferView": 0,
      "componentType": 5125,
      "count": 21384,
      "type": "SCALAR"
    }
  ],
  "asset": {
    "extras": {
      "author": "duckSPLASH (https://sketchfab.com/ducksplash)",
      "license": "CC-BY-4.0 (http://creativecommons.org/licenses/by/4.0/)",
      "source": "https://sketchfab.com/3d-models/laundry-basket-f3b46023d6444a86915413949cffded1",
      "title": "Laundry Basket"
    },
    "generator": "Sketchfab-16.99.0",
    "version": "2.0"
  },
  "bufferViews": [
    {
      "buffer": 0,
      "byteLength": 85536,
      "name": "floatBufferViews",
      "target": 34963
    },
    {
      "buffer": 0,
      "byteLength": 1006960,
      "byteOffset": 85536,
      "byteStride": 8,
      "name": "floatBufferViews",
      "target": 34962
    },
    {
      "buffer": 0,
      "byteLength": 302088,
      "byteOffset": 1092496,
      "byteStride": 12,
      "name": "floatBufferViews",
      "target": 34962
    }
  ],
  "buffers": [
    {
      "byteLength": 1394584,
      "uri": "scene.bin"
    }
  ],
  "materials": [
    {
      "doubleSided": true,
      "name": "WASHBASKET",
      "pbrMetallicRoughness": {
        "baseColorFactor": [
          0.8,
          0.8,
          0.8,
          1.0
        ],
        "metallicFactor": 0.0,
        "roughnessFactor": 0.9577051494623774
      }
    }
  ],
  "meshes": [
    {
      "name": "Roundcube.002_WASHBASKET_0",
      "primitives": [
        {
          "attributes": {
            "NORMAL": 1,
            "POSITION": 0,
            "TEXCOORD_0": 2,
            "TEXCOORD_1": 3,
            "TEXCOORD_2": 4,
            "TEXCOORD_3": 5,
            "TEXCOORD_4": 6,
            "TEXCOORD_5": 7,
            "TEXCOORD_6": 8,
            "TEXCOORD_7": 9,
            "TEXCOORD_8": 10,
            "TEXCOORD_9": 11
          },
          "indices": 12,
          "material": 0,
          "mode": 4
        }
      ]
    }
  ],
  "nodes": [
    {
      "children": [
        1
      ],
      "matrix": [
        1.0,
        0.0,
        0.0,
        0.0,
        0.0,
        2.220446049250313e-16,
        -1.0,
        0.0,
        0.0,
        1.0,
        2.220446049250313e-16,
        0.0,
        0.0,
        0.0,
        0.0,
        1.0
      ],
      "name": "Sketchfab_model"
    },
    {
      "children": [
        2
      ],
      "matrix": [
        0.009999999776482582,
        0.0,
        0.0,
        0.0,
        0.0,
        0.0,
        0.009999999776482582,
        0.0,
        0.0,
        -0.009999999776482582,
        0.0,
        0.0,
        0.0,
        0.0,
        0.0,
        1.0
      ],
      "name": "b5f89f8fe7ee45fca785344c576bb608.fbx"
    },
    {
      "children": [
        3
      ],
      "name": "RootNode"
    },
    {
      "children": [
        4
      ],
      "matrix": [
        100.0,
        0.0,
        0.0,
        0.0,
        0.0,
        -1.331580541386046e-05,
        -99.99999999999912,
        0.0,
        0.0,
        194.86506652831858,
        -2.5947853078500863e-05,
        0.0,
        0.0,
        0.0,
        0.0,
        1.0
      ],
      "name": "Roundcube.002"
    },
    {
      "mesh": 0,
      "name": "Roundcube.002_WASHBASKET_0"
    }
  ],
  "scene": 0,
  "scenes": [
    {
      "name": "Sketchfab_Scene",
      "nodes": [
        0
      ]
    }
  ]
}
