{
  "accessors": [
    {
      "bufferView": 2,
      "componentType": 5126,
      "count": 280,
      "max": [
        0.7648000121116638,
        0.7619969844818115,
        0.15436199307441711
      ],
      "min": [
        -0.7602599859237671,
        -12.215291976928711,
        -5.5606160163879395
      ],
      "type": "VEC3"
    },
    {
      "bufferView": 2,
      "byteOffset": 3360,
      "componentType": 5126,
      "count": 280,
      "max": [
        0.996778130531311,
        0.999840259552002,
        1.0
      ],
      "min": [
        -0.9967780113220215,
        -0.999840259552002,
        -0.7184764742851257
      ],
      "type": "VEC3"
    },
    {
      "bufferView": 3,
      "componentType": 5126,
      "count": 280,
      "max": [
        0.9646665453910828,
        0.9705201983451843,
        1.0,
        1.0
      ],
      "min": [
        -0.9631127715110779,
        -0.7186044454574585,
        -1.0,
        1.0
      ],
      "type": "VEC4"
    },
    {
      "bufferView": 1,
      "componentType": 5126,
      "count": 280,
      "max": [
        0.4155699908733368,
        0.4688490033149719
      ],
      "min": [
        0.06750799715518951,
        0.016335999593138695
      ],
      "type": "VEC2"
    },
    {
      "bufferView": 0,
      "componentType": 5125,
      "count": 924,
      "type": "SCALAR"
    },
    {
      "bufferView": 2,
      "byteOffset": 6720,
      "componentType": 5126,
      "count": 280,
      "max": [
        0.7608659863471985,
        0.7621309757232666,
        0.15436199307441711
      ],
      "min": [
        -0.7649080157279968,
        -12.957560539245605,
        -8.721294403076172
      ],
      "type": "VEC3"
    },
    {
      "bufferView": 2,
      "byteOffset": 10080,
      "componentType": 5126,
      "count": 280,
      "max": [
        0.9972428679466248,
        0.9972428679466248,
        1.0
      ],
      "min": [
        -0.9972428679466248,
        -0.9972428679466248,
        -0.904024600982666
      ],
      "type": "VEC3"
    },
    {
      "bufferView": 3,
      "byteOffset": 4480,
      "componentType": 5126,
      "count": 280,
      "max": [
        0.7634705305099487,
        0.9077234268188477,
        1.0,
        1.0
      ],
      "min": [
        -0.7588446736335754,
        -0.9065269827842712,
        -1.0,
        1.0
      ],
      "type": "VEC4"
    },
    {
      "bufferView": 1,
      "byteOffset": 2240,
      "componentType": 5126,
      "count": 280,
      "max": [
        0.2415280044078827,
        0.4901599884033203
      ],
      "min": [
        0.0035439999774098396,
        0.011335000395774841
      ],
      "type": "VEC2"
    },
    {
      "bufferView": 0,
      "byteOffset": 3696,
      "componentType": 5125,
      "count": 924,
      "type": "SCALAR"
    },
    {
      "bufferView": 2,
      "byteOffset": 13440,
      "componentType": 5126,
      "count": 74,
      "max": [
        0.2945629954338074,
        0.2945590019226074,
        0.842274010181427
      ],
      "min": [
        -0.2945629954338074,
        -16.891315460205078,
        -0.842274010181427
      ],
      "type": "VEC3"
    },
    {
      "bufferView": 2,
      "byteOffset": 14328,
      "componentType": 5126,
      "count": 74,
      "max": [
        0.9907442331314087,
        0.9907457828521729,
        0.0
      ],
      "min": [
        -0.9907455444335938,
        -0.9907452464103699,
        -1.0
      ],
      "type": "VEC3"
    },
    {
      "bufferView": 3,
      "byteOffset": 8960,
      "componentType": 5126,
      "count": 74,
      "max": [
        0.9850890040397644,
        0.7654247879981995,
        1.0,
        1.0
      ],
      "min": [
        -0.07086688280105591,
        -0.7661169767379761,
        -0.9713724851608276,
        1.0
      ],
      "type": "VEC4"
    },
    {
      "bufferView": 1,
      "byteOffset": 4480,
      "componentType": 5126,
      "count": 74,
      "max": [
        0.6144760251045227,
        0.41912201046943665
      ],
      "min": [
        0.09227800369262695,
        0.017597999423742294
      ],
      "type": "VEC2"
    },
    {
      "bufferView": 0,
      "byteOffset": 7392,
      "componentType": 5125,
      "count": 240,
      "type": "SCALAR"
    },
    {
      "bufferView": 2,
      "byteOffset": 15216,
      "componentType": 5126,
      "count": 802,
      "max": [
        1.132385015487671,
        1.132385015487671,
        1.181918978691101
      ],
      "min": [
        -1.132385015487671,
        -17.729141235351563,
        -1.1819159984588623
      ],
      "type": "VEC3"
    },
    {
      "bufferView": 2,
      "byteOffset": 24840,
      "componentType": 5126,
      "count": 802,
      "max": [
        0.9995156526565552,
        0.9934143424034119,
        1.0
      ],
      "min": [
        -0.9998476505279541,
        -0.9934145212173462,
        -1.0
      ],
      "type": "VEC3"
    },
    {
      "bufferView": 3,
      "byteOffset": 10144,
      "componentType": 5126,
      "count": 802,
      "max": [
        0.9441198706626892,
        0.9981163144111633,
        1.0,
        1.0
      ],
      "min": [
        -0.9997738003730774,
        -0.998115599155426,
        -1.0,
        1.0
      ],
      "type": "VEC4"
    },
    {
      "bufferView": 1,
      "byteOffset": 5072,
      "componentType": 5126,
      "count": 802,
      "max": [
        0.5398859977722168,
        0.555869996547699
      ],
      "min": [
        0.023970000445842743,
        0.007561999838799238
      ],
      "type": "VEC2"
    },
    {
      "bufferView": 0,
      "byteOffset": 8352,
      "componentType": 5125,
      "count": 2256,
      "type": "SCALAR"
    },
    {
      "bufferView": 2,
      "byteOffset": 34464,
      "componentType": 5126,
      "count": 102,
      "max": [
        1.2607500553131104,
        1.260746955871582,
        0.21448899805545807
      ],
      "min": [
        -1.2607489824295044,
        -17.857500076293945,
        -0.21448899805545807
      ],
      "type": "VEC3"
    },
    {
      "bufferView": 2,
      "byteOffset": 35688,
      "componentType": 5126,
      "count": 102,
      "max": [
        0.9923048615455627,
        0.9999828934669495,
        0.00014499998360406607
      ],
      "min": [
        -0.9999865293502808,
        -0.9999828934669495,
        -0.9964410066604614
      ],
      "type": "VEC3"
    },
    {
      "bufferView": 3,
      "byteOffset": 22976,
      "componentType": 5126,
      "count": 102,
      "max": [
        0.988010048866272,
        0.9194802641868591,
        1.0,
        1.0
      ],
      "min": [
        -0.9881349802017212,
        -0.9700413942337036,
        -1.0,
        1.0
      ],
      "type": "VEC4"
    },
    {
      "bufferView": 1,
      "byteOffset": 11488,
      "componentType": 5126,
      "count": 102,
      "max": [
        0.6180279850959778,
        0.3587400019168854
      ],
      "min": [
        0.04367100074887276,
        0.10672400146722794
      ],
      "type": "VEC2"
    },
    {
      "bufferView": 0,
      "byteOffset": 17376,
      "componentType": 5125,
      "count": 288,
      "type": "SCALAR"
    },
    {
      "bufferView": 2,
      "byteOffset": 36912,
      "componentType": 5126,
      "count": 496,
      "max": [
        1.5573220252990723,
        16.822521209716797,
        13.417533874511719
      ],
      "min": [
        -15.863504409790039,
        -25.890579223632813,
        -15.921699523925781
      ],
      "type": "VEC3"
    },
    {
      "bufferView": 2,
      "byteOffset": 42864,
      "componentType": 5126,
      "count": 496,
      "max": [
        0.9999971389770508,
        0.9999977350234985,
        1.0
      ],
      "min": [
        -0.9999979734420776,
        -0.9999988675117493,
        -0.9999973773956299
      ],
      "type": "VEC3"
    },
    {
      "bufferView": 3,
      "byteOffset": 24608,
      "componentType": 5126,
      "count": 496,
      "max": [
        0.9999944567680359,
        0.9999955296516418,
        0.9999966025352478,
        1.0
      ],
      "min": [
        -1.0,
        -0.999993622303009,
        -0.999998927116394,
        1.0
      ],
      "type": "VEC4"
    },
    {
      "bufferView": 1,
      "byteOffset": 12304,
      "componentType": 5126,
      "count": 496,
      "max": [
        0.9625610113143921,
        0.9838719964027405
      ],
      "min": [
        0.0024309998843818903,
        0.0026310000102967024
      ],
      "type": "VEC2"
    },
    {
      "bufferView": 0,
      "byteOffset": 18528,
      "componentType": 5125,
      "count": 2124,
      "type": "SCALAR"
    },
    {
      "bufferView": 2,
      "byteOffset": 48816,
      "componentType": 5126,
      "count": 336,
      "max": [
        1.963739037513733,
        15.72319221496582,
        10.294441223144531
      ],
      "min": [
        -16.18256950378418,
        -27.132869720458984,
        8.60849380493164
      ],
      "type": "VEC3"
    },
    {
      "bufferView": 2,
      "byteOffset": 52848,
      "componentType": 5126,
      "count": 336,
      "max": [
        0.9953362345695496,
        0.9944760203361511,
        0.9999513626098633
      ],
      "min": [
        -0.9940341114997864,
        -0.9911611080169678,
        -0.9999475479125977
      ],
      "type": "VEC3"
    },
    {
      "bufferView": 3,
      "byteOffset": 32544,
      "componentType": 5126,
      "count": 336,
      "max": [
        0.9998518228530884,
        0.9991734027862549,
        0.9966663122177124,
        1.0
      ],
      "min": [
        -0.9998220801353455,
        -0.9992384910583496,
        -0.9954400062561035,
        1.0
      ],
      "type": "VEC4"
    },
    {
      "bufferView": 1,
      "byteOffset": 16272,
      "componentType": 5126,
      "count": 336,
      "max": [
        0.43688198924064636,
        0.4510889947414398
      ],
      "min": [
        0.0026030000299215317,
        0.09016799926757813
      ],
      "type": "VEC2"
    },
    {
      "bufferView": 0,
      "byteOffset": 27024,
      "componentType": 5125,
      "count": 1560,
      "type": "SCALAR"
    },
    {
      "bufferView": 2,
      "byteOffset": 56880,
      "componentType": 5126,
      "count": 1642,
      "max": [
        43.48013687133789,
        19.389755249023438,
        1.8733340501785278
      ],
      "min": [
        -0.717976987361908,
        -19.389759063720703,
        -1.1096090078353882
      ],
      "type": "VEC3"
    },
    {
      "bufferView": 2,
      "byteOffset": 76584,
      "componentType": 5126,
      "count": 1642,
      "max": [
        0.9999974966049194,
        0.9994179010391235,
        1.0
      ],
      "min": [
        -0.9999985098838806,
        -0.9994179010391235,
        -1.0
      ],
      "type": "VEC3"
    },
    {
      "bufferView": 3,
      "byteOffset": 37920,
      "componentType": 5126,
      "count": 1642,
      "max": [
        1.0,
        0.8134511113166809,
        0.9988742470741272,
        1.0
      ],
      "min": [
        -0.999927282333374,
        -0.9490025639533997,
        -0.9999000430107117,
        1.0
      ],
      "type": "VEC4"
    },
    {
      "bufferView": 1,
      "byteOffset": 18960,
      "componentType": 5126,
      "count": 1642,
      "max": [
        0.6586350202560425,
        0.8577799797058105
      ],
      "min": [
        0.00355300004594028,
        0.003306000027805567
      ],
      "type": "VEC2"
    },
    {
      "bufferView": 0,
      "byteOffset": 33264,
      "componentType": 5125,
      "count": 8904,
      "type": "SCALAR"
    },
    {
      "bufferView": 2,
      "byteOffset": 96288,
      "componentType": 5126,
      "count": 376,
      "max": [
        -104.13469696044922,
        41.16645431518555,
        -28.799436569213867
      ],
      "min": [
        -106.60714721679688,
        38.463714599609375,
        -29.30535888671875
      ],
      "type": "VEC3"
    },
    {
      "bufferView": 2,
      "byteOffset": 100800,
      "componentType": 5126,
      "count": 376,
      "max": [
        0.9984586238861084,
        0.9336092472076416,
        1.0
      ],
      "min": [
        -0.9984591007232666,
        -0.933600664138794,
        -1.0
      ],
      "type": "VEC3"
    },
    {
      "bufferView": 3,
      "byteOffset": 64192,
      "componentType": 5126,
      "count": 376,
      "max": [
        0.8572595119476318,
        0.9740586876869202,
        0.9987905025482178,
        1.0
      ],
      "min": [
        -0.20487479865550995,
        -0.11091133952140808,
        -0.9989597797393799,
        1.0
      ],
      "type": "VEC4"
    },
    {
      "bufferView": 1,
      "byteOffset": 32096,
      "componentType": 5126,
      "count": 376,
      "max": [
        0.5825089812278748,
        0.4351060092449188
      ],
      "min": [
        0.002940000034868717,
        0.00948300026357174
      ],
      "type": "VEC2"
    },
    {
      "bufferView": 0,
      "byteOffset": 68880,
      "componentType": 5125,
      "count": 1296,
      "type": "SCALAR"
    },
    {
      "bufferView": 2,
      "byteOffset": 105312,
      "componentType": 5126,
      "count": 38,
      "max": [
        -4.994162082672119,
        -1.9664939641952515,
        4.387989044189453
      ],
      "min": [
        -6.7822418212890625,
        -3.7821600437164307,
        2.261686086654663
      ],
      "type": "VEC3"
    },
    {
      "bufferView": 2,
      "byteOffset": 105768,
      "componentType": 5126,
      "count": 38,
      "max": [
        0.9848081469535828,
        1.0,
        0.0
      ],
      "min": [
        -0.9848080277442932,
        -1.0,
        0.0
      ],
      "type": "VEC3"
    },
    {
      "bufferView": 3,
      "byteOffset": 70208,
      "componentType": 5126,
      "count": 38,
      "max": [
        2.5818042104219785e-07,
        4.490400158374541e-07,
        1.0,
        1.0
      ],
      "min": [
        -2.592529426692636e-07,
        0.0,
        1.0,
        1.0
      ],
      "type": "VEC4"
    },
    {
      "bufferView": 1,
      "byteOffset": 35104,
      "componentType": 5126,
      "count": 38,
      "max": [
        0.564749002456665,
        0.37472400069236755
      ],
      "min": [
        0.5523250102996826,
        0.3415620028972626
      ],
      "type": "VEC2"
    },
    {
      "bufferView": 0,
      "byteOffset": 74064,
      "componentType": 5125,
      "count": 108,
      "type": "SCALAR"
    },
    {
      "bufferView": 2,
      "byteOffset": 106224,
      "componentType": 5126,
      "count": 38,
      "max": [
        -4.994162082672119,
        -1.9664920568466187,
        4.786403179168701
      ],
      "min": [
        -6.7822418212890625,
        -3.7821590900421143,
        2.3561110496520996
      ],
      "type": "VEC3"
    },
    {
      "bufferView": 2,
      "byteOffset": 106680,
      "componentType": 5126,
      "count": 38,
      "max": [
        0.9848080277442932,
        1.0,
        0.0
      ],
      "min": [
        -0.9848080277442932,
        -1.0,
        0.0
      ],
      "type": "VEC3"
    },
    {
      "bufferView": 3,
      "byteOffset": 70816,
      "componentType": 5126,
      "count": 38,
      "max": [
        2.2582236169910175e-07,
        3.9276790175790666e-07,
        1.0,
        1.0
      ],
      "min": [
        -2.2676425714962534e-07,
        0.0,
        1.0,
        1.0
      ],
      "type": "VEC4"
    },
    {
      "bufferView": 1,
      "byteOffset": 35408,
      "componentType": 5126,
      "count": 38,
      "max": [
        0.01775900088250637,
        0.5363339781761169
      ],
      "min": [
        0.003558000084012747,
        0.503171980381012
      ],
      "type": "VEC2"
    },
    {
      "bufferView": 0,
      "byteOffset": 74496,
      "componentType": 5125,
      "count": 108,
      "type": "SCALAR"
    },
    {
      "bufferView": 2,
      "byteOffset": 107136,
      "componentType": 5126,
      "count": 536,
      "max": [
        -104.27962493896484,
        40.99088668823242,
        -31.629236221313477
      ],
      "min": [
        -106.46221923828125,
        38.639278411865234,
        -32.94834899902344
      ],
      "type": "VEC3"
    },
    {
      "bufferView": 2,
      "byteOffset": 113568,
      "componentType": 5126,
      "count": 536,
      "max": [
        0.996199905872345,
        0.9776408672332764,
        1.0
      ],
      "min": [
        -0.996199905872345,
        -0.9776402115821838,
        -1.0
      ],
      "type": "VEC3"
    },
    {
      "bufferView": 3,
      "byteOffset": 71424,
      "componentType": 5126,
      "count": 536,
      "max": [
        0.999923050403595,
        0.9941269755363464,
        1.0,
        1.0
      ],
      "min": [
        -0.5717535614967346,
        -0.9987509846687317,
        -0.8811833262443542,
        1.0
      ],
      "type": "VEC4"
    },
    {
      "bufferView": 1,
      "byteOffset": 35712,
      "componentType": 5126,
      "count": 536,
      "max": [
        0.5860610008239746,
        0.4439859986305237
      ],
      "min": [
        0.27855798602104187,
        0.0026259999722242355
      ],
      "type": "VEC2"
    },
    {
      "bufferView": 0,
      "byteOffset": 74928,
      "componentType": 5125,
      "count": 2340,
      "type": "SCALAR"
    },
    {
      "bufferView": 2,
      "byteOffset": 120000,
      "componentType": 5126,
      "count": 420,
      "max": [
        1.1538029909133911,
        1.0834790468215942,
        0.9637600183486938
      ],
      "min": [
        -1.0928250551223755,
        -1.163133978843689,
        -0.3555150032043457
      ],
      "type": "VEC3"
    },
    {
      "bufferView": 2,
      "byteOffset": 125040,
      "componentType": 5126,
      "count": 420,
      "max": [
        0.9998374581336975,
        0.9999409914016724,
        1.0
      ],
      "min": [
        -0.9994714856147766,
        -0.9997173547744751,
        -0.9975483417510986
      ],
      "type": "VEC3"
    },
    {
      "bufferView": 3,
      "byteOffset": 80000,
      "componentType": 5126,
      "count": 420,
      "max": [
        0.9737369418144226,
        0.3230501413345337,
        0.9999995231628418,
        1.0
      ],
      "min": [
        -0.48704439401626587,
        -0.9926475882530212,
        -0.999948263168335,
        1.0
      ],
      "type": "VEC4"
    },
    {
      "bufferView": 1,
      "byteOffset": 40000,
      "componentType": 5126,
      "count": 420,
      "max": [
        0.5683010220527649,
        0.5363339781761169
      ],
      "min": [
        0.18978099524974823,
        0.16491200029850006
      ],
      "type": "VEC2"
    },
    {
      "bufferView": 0,
      "byteOffset": 84288,
      "componentType": 5125,
      "count": 1536,
      "type": "SCALAR"
    },
    {
      "bufferView": 2,
      "byteOffset": 130080,
      "componentType": 5126,
      "count": 132,
      "max": [
        1.5410939455032349,
        1.5410879850387573,
        0.26077699661254883
      ],
      "min": [
        -1.5410939455032349,
        -1.5410959720611572,
        0.14061200618743896
      ],
      "type": "VEC3"
    },
    {
      "bufferView": 2,
      "byteOffset": 131664,
      "componentType": 5126,
      "count": 132,
      "max": [
        0.9984487891197205,
        0.9984486699104309,
        -0.055677980184555054
      ],
      "min": [
        -0.9984487891197205,
        -0.9984487891197205,
        -1.0
      ],
      "type": "VEC3"
    },
    {
      "bufferView": 3,
      "byteOffset": 86720,
      "componentType": 5126,
      "count": 132,
      "max": [
        0.9777566194534302,
        0.9991112351417542,
        0.9977962970733643,
        1.0
      ],
      "min": [
        -0.15523666143417358,
        -0.9967309236526489,
        -0.20484361052513123,
        1.0
      ],
      "type": "VEC4"
    },
    {
      "bufferView": 1,
      "byteOffset": 43360,
      "componentType": 5126,
      "count": 132,
      "max": [
        0.024862999096512794,
        0.6180279850959778
      ],
      "min": [
        0.0019519999623298645,
        0.45746299624443054
      ],
      "type": "VEC2"
    },
    {
      "bufferView": 0,
      "byteOffset": 90432,
      "componentType": 5125,
      "count": 480,
      "type": "SCALAR"
    },
    {
      "bufferView": 2,
      "byteOffset": 133248,
      "componentType": 5126,
      "count": 217,
      "max": [
        1.2362170219421387,
        1.3513699769973755,
        0.21678200364112854
      ],
      "min": [
        -1.2362159490585327,
        -1.3513699769973755,
        -0.674780011177063
      ],
      "type": "VEC3"
    },
    {
      "bufferView": 2,
      "byteOffset": 135852,
      "componentType": 5126,
      "count": 217,
      "max": [
        0.9961947798728943,
        0.9848091006278992,
        1.0000002248489182e-06
      ],
      "min": [
        -0.9961947798728943,
        -0.9848092198371887,
        -1.0
      ],
      "type": "VEC3"
    },
    {
      "bufferView": 3,
      "byteOffset": 88832,
      "componentType": 5126,
      "count": 217,
      "max": [
        0.8039495348930359,
        0.7638813853263855,
        0.7938281893730164,
        1.0
      ],
      "min": [
        -0.8039699792861938,
        -0.8748975992202759,
        -0.9999974370002747,
        1.0
      ],
      "type": "VEC4"
    },
    {
      "bufferView": 1,
      "byteOffset": 44416,
      "componentType": 5126,
      "count": 217,
      "max": [
        0.6144760251045227,
        0.4795039892196655
      ],
      "min": [
        0.012546000070869923,
        0.04178500175476074
      ],
      "type": "VEC2"
    },
    {
      "bufferView": 0,
      "byteOffset": 92352,
      "componentType": 5125,
      "count": 702,
      "type": "SCALAR"
    },
    {
      "bufferView": 2,
      "byteOffset": 138456,
      "componentType": 5126,
      "count": 132,
      "max": [
        5.851156234741211,
        4.289927005767822,
        0.31259000301361084
      ],
      "min": [
        -2.5087740421295166,
        -4.070003986358643,
        -0.013330000452697277
      ],
      "type": "VEC3"
    },
    {
      "bufferView": 2,
      "byteOffset": 140040,
      "componentType": 5126,
      "count": 132,
      "max": [
        0.9984487891197205,
        0.9984487891197205,
        -0.05567798390984535
      ],
      "min": [
        -0.9984486699104309,
        -0.9984487891197205,
        -1.0
      ],
      "type": "VEC3"
    },
    {
      "bufferView": 3,
      "byteOffset": 92304,
      "componentType": 5126,
      "count": 132,
      "max": [
        0.16002711653709412,
        0.9999120235443115,
        0.00819661095738411,
        1.0
      ],
      "min": [
        -0.9998582005500793,
        -0.9999250769615173,
        -0.9983198046684265,
        1.0
      ],
      "type": "VEC4"
    },
    {
      "bufferView": 1,
      "byteOffset": 46152,
      "componentType": 5126,
      "count": 132,
      "max": [
        0.37472400069236755,
        0.5469899773597717
      ],
      "min": [
        0.040828999131917953,
        0.109095998108387
      ],
      "type": "VEC2"
    },
    {
      "bufferView": 0,
      "byteOffset": 95160,
      "componentType": 5125,
      "count": 480,
      "type": "SCALAR"
    },
    {
      "bufferView": 2,
      "byteOffset": 141624,
      "componentType": 5126,
      "count": 131,
      "max": [
        1.5908620357513428,
        1.5908689498901367,
        -0.5518969893455505
      ],
      "min": [
        -1.5908620357513428,
        -1.590857982635498,
        -0.9674280285835266
      ],
      "type": "VEC3"
    },
    {
      "bufferView": 2,
      "byteOffset": 143196,
      "componentType": 5126,
      "count": 131,
      "max": [
        0.9995876550674438,
        0.9995876550674438,
        1.0
      ],
      "min": [
        -0.9995876550674438,
        -0.9995876550674438,
        0.028714988380670547
      ],
      "type": "VEC3"
    },
    {
      "bufferView": 3,
      "byteOffset": 94416,
      "componentType": 5126,
      "count": 131,
      "max": [
        0.1823141723871231,
        0.1904909461736679,
        0.9795679450035095,
        1.0
      ],
      "min": [
        -0.7258367538452148,
        -0.9389950633049011,
        -0.9995876550674438,
        1.0
      ],
      "type": "VEC4"
    },
    {
      "bufferView": 1,
      "byteOffset": 47208,
      "componentType": 5126,
      "count": 131,
      "max": [
        0.6038200259208679,
        0.2699429988861084
      ],
      "min": [
        0.057186998426914215,
        0.029426999390125275
      ],
      "type": "VEC2"
    },
    {
      "bufferView": 0,
      "byteOffset": 97080,
      "componentType": 5125,
      "count": 480,
      "type": "SCALAR"
    },
    {
      "bufferView": 2,
      "byteOffset": 144768,
      "componentType": 5126,
      "count": 685,
      "max": [
        4.967528820037842,
        3.397752046585083,
        3.0505480766296387
      ],
      "min": [
        -1.6220660209655762,
        -3.175489902496338,
        0.667684018611908
      ],
      "type": "VEC3"
    },
    {
      "bufferView": 2,
      "byteOffset": 152988,
      "componentType": 5126,
      "count": 685,
      "max": [
        0.999812126159668,
        0.9997740983963013,
        0.9999989867210388
      ],
      "min": [
        -0.9998117685317993,
        -0.9997815489768982,
        -0.9991556406021118
      ],
      "type": "VEC3"
    },
    {
      "bufferView": 3,
      "byteOffset": 96512,
      "componentType": 5126,
      "count": 685,
      "max": [
        0.9998108744621277,
        0.9998438358306885,
        1.0,
        1.0
      ],
      "min": [
        -0.9998235106468201,
        -0.999865710735321,
        -0.995563268661499,
        1.0
      ],
      "type": "VEC4"
    },
    {
      "bufferView": 1,
      "byteOffset": 48256,
      "componentType": 5126,
      "count": 685,
      "max": [
        0.4795039892196655,
        0.5825089812278748
      ],
      "min": [
        0.07873000204563141,
        0.030401000753045082
      ],
      "type": "VEC2"
    },
    {
      "bufferView": 0,
      "byteOffset": 99000,
      "componentType": 5125,
      "count": 2580,
      "type": "SCALAR"
    },
    {
      "bufferView": 2,
      "byteOffset": 161208,
      "componentType": 5126,
      "count": 217,
      "max": [
        5.024232864379883,
        3.775346040725708,
        0.19326399266719818
      ],
      "min": [
        -1.6818469762802124,
        -3.5553979873657227,
        -1.1917589902877808
      ],
      "type": "VEC3"
    },
    {
      "bufferView": 2,
      "byteOffset": 163812,
      "componentType": 5126,
      "count": 217,
      "max": [
        0.9987954497337341,
        0.9330653548240662,
        1.0000002248489182e-06
      ],
      "min": [
        -0.9977222681045532,
        -0.9492617845535278,
        -1.0
      ],
      "type": "VEC3"
    },
    {
      "bufferView": 3,
      "byteOffset": 107472,
      "componentType": 5126,
      "count": 217,
      "max": [
        0.9095702767372131,
        0.8973972201347351,
        0.7346060276031494,
        1.0
      ],
      "min": [
        -0.9963976144790649,
        -0.89802485704422,
        -0.999970018863678,
        1.0
      ],
      "type": "VEC4"
    },
    {
      "bufferView": 1,
      "byteOffset": 53736,
      "componentType": 5126,
      "count": 217,
      "max": [
        0.5967159867286682,
        0.6109240055084229
      ],
      "min": [
        0.011397999711334705,
        0.23245100677013397
      ],
      "type": "VEC2"
    },
    {
      "bufferView": 0,
      "byteOffset": 109320,
      "componentType": 5125,
      "count": 702,
      "type": "SCALAR"
    },
    {
      "bufferView": 2,
      "byteOffset": 166416,
      "componentType": 5126,
      "count": 668,
      "max": [
        4.340457916259766,
        2.7670021057128906,
        -2.409759998321533
      ],
      "min": [
        -0.9358980059623718,
        -2.509355068206787,
        -5.18794584274292
      ],
      "type": "VEC3"
    },
    {
      "bufferView": 2,
      "byteOffset": 174432,
      "componentType": 5126,
      "count": 668,
      "max": [
        0.9918133616447449,
        0.9918131232261658,
        0.7065978050231934
      ],
      "min": [
        -0.9918133616447449,
        -0.9918130040168762,
        -0.5540888905525208
      ],
      "type": "VEC3"
    },
    {
      "bufferView": 3,
      "byteOffset": 110944,
      "componentType": 5126,
      "count": 668,
      "max": [
        0.9973528981208801,
        0.9898972511291504,
        0.16424769163131714,
        1.0
      ],
      "min": [
        -0.9970459342002869,
        -0.9970490336418152,
        -0.2333967238664627,
        1.0
      ],
      "type": "VEC4"
    },
    {
      "bufferView": 1,
      "byteOffset": 55472,
      "componentType": 5126,
      "count": 668,
      "max": [
        0.4155699908733368,
        0.3942590057849884
      ],
      "min": [
        0.3501560091972351,
        0.37843701243400574
      ],
      "type": "VEC2"
    },
    {
      "bufferView": 0,
      "byteOffset": 112128,
      "componentType": 5125,
      "count": 3684,
      "type": "SCALAR"
    },
    {
      "bufferView": 2,
      "byteOffset": 182448,
      "componentType": 5126,
      "count": 752,
      "max": [
        1.634861946105957,
        4.456841945648193,
        1.6473009586334229
      ],
      "min": [
        -1.7037639617919922,
        -6.339615821838379,
        -1.6473050117492676
      ],
      "type": "VEC3"
    },
    {
      "bufferView": 2,
      "byteOffset": 191472,
      "componentType": 5126,
      "count": 752,
      "max": [
        0.9999556541442871,
        0.9999997615814209,
        1.0
      ],
      "min": [
        -0.9996622204780579,
        -0.9999997615814209,
        -1.0
      ],
      "type": "VEC3"
    },
    {
      "bufferView": 3,
      "byteOffset": 121632,
      "componentType": 5126,
      "count": 752,
      "max": [
        0.9985453486442566,
        0.998911440372467,
        1.0,
        1.0
      ],
      "min": [
        -0.9986186027526855,
        -0.9999310970306396,
        -1.0,
        -1.0
      ],
      "type": "VEC4"
    },
    {
      "bufferView": 1,
      "byteOffset": 60816,
      "componentType": 5126,
      "count": 752,
      "max": [
        0.5967159867286682,
        0.5114709734916687
      ],
      "min": [
        0.03789199888706207,
        0.009296000003814697
      ],
      "type": "VEC2"
    },
    {
      "bufferView": 0,
      "byteOffset": 126864,
      "componentType": 5125,
      "count": 3426,
      "type": "SCALAR"
    },
    {
      "bufferView": 2,
      "byteOffset": 200496,
      "componentType": 5126,
      "count": 1178,
      "max": [
        10.861084938049316,
        11.90450382232666,
        -41.74483871459961
      ],
      "min": [
        7.91431999206543,
        -11.904501914978027,
        -44.07461166381836
      ],
      "type": "VEC3"
    },
    {
      "bufferView": 2,
      "byteOffset": 214632,
      "componentType": 5126,
      "count": 1178,
      "max": [
        0.9998071193695068,
        0.9995535016059875,
        0.9999799728393555
      ],
      "min": [
        -0.9998080134391785,
        -0.9995518922805786,
        -0.9999989867210388
      ],
      "type": "VEC3"
    },
    {
      "bufferView": 3,
      "byteOffset": 133664,
      "componentType": 5126,
      "count": 1178,
      "max": [
        0.9999999403953552,
        0.9934591054916382,
        0.9998736381530762,
        1.0
      ],
      "min": [
        -1.0,
        -0.9926358461380005,
        -0.9991598129272461,
        1.0
      ],
      "type": "VEC4"
    },
    {
      "bufferView": 1,
      "byteOffset": 66832,
      "componentType": 5126,
      "count": 1178,
      "max": [
        0.5114709734916687,
        0.6180279850959778
      ],
      "min": [
        0.024661000818014145,
        0.0023560000117868185
      ],
      "type": "VEC2"
    },
    {
      "bufferView": 0,
      "byteOffset": 140568,
      "componentType": 5125,
      "count": 5760,
      "type": "SCALAR"
    },
    {
      "bufferView": 2,
      "byteOffset": 228768,
      "componentType": 5126,
      "count": 195,
      "max": [
        -96.98446655273438,
        30.03445053100586,
        -98.48965454101563
      ],
      "min": [
        -109.6130599975586,
        17.405874252319336,
        -98.79154968261719
      ],
      "type": "VEC3"
    },
    {
      "bufferView": 2,
      "byteOffset": 231108,
      "componentType": 5126,
      "count": 195,
      "max": [
        1.0,
        1.0,
        0.9997743368148804
      ],
      "min": [
        -1.0,
        -1.0,
        -7.400003232760355e-05
      ],
      "type": "VEC3"
    },
    {
      "bufferView": 3,
      "byteOffset": 152512,
      "componentType": 5126,
      "count": 195,
      "max": [
        0.9932735562324524,
        0.9716482758522034,
        0.8548596501350403,
        1.0
      ],
      "min": [
        -0.9935293197631836,
        -0.9999998211860657,
        -0.8550139665603638,
        1.0
      ],
      "type": "VEC4"
    },
    {
      "bufferView": 1,
      "byteOffset": 76256,
      "componentType": 5126,
      "count": 195,
      "max": [
        0.7458959817886353,
        0.3249970078468323
      ],
      "min": [
        0.2120240032672882,
        0.029523000121116638
      ],
      "type": "VEC2"
    },
    {
      "bufferView": 0,
      "byteOffset": 163608,
      "componentType": 5125,
      "count": 768,
      "type": "SCALAR"
    },
    {
      "bufferView": 2,
      "byteOffset": 233448,
      "componentType": 5126,
      "count": 255,
      "max": [
        6.559964179992676,
        2.2935760021209717,
        34.62246322631836
      ],
      "min": [
        -9.449464797973633,
        -2.308573007583618,
        -2.2932701110839844
      ],
      "type": "VEC3"
    },
    {
      "bufferView": 2,
      "byteOffset": 236508,
      "componentType": 5126,
      "count": 255,
      "max": [
        0.9999985098838806,
        0.9999989867210388,
        0.9998779892921448
      ],
      "min": [
        -0.9999850988388062,
        -0.9999997615814209,
        -0.9999665021896362
      ],
      "type": "VEC3"
    },
    {
      "bufferView": 3,
      "byteOffset": 155632,
      "componentType": 5126,
      "count": 255,
      "max": [
        0.9998746514320374,
        0.1669434756040573,
        -0.00814777985215187,
        1.0
      ],
      "min": [
        -0.0017399993957951665,
        -0.1625417172908783,
        -0.9999985694885254,
        1.0
      ],
      "type": "VEC4"
    },
    {
      "bufferView": 1,
      "byteOffset": 77816,
      "componentType": 5126,
      "count": 255,
      "max": [
        0.9021779894828796,
        0.9305930137634277
      ],
      "min": [
        0.6773650050163269,
        0.8524529933929443
      ],
      "type": "VEC2"
    },
    {
      "bufferView": 0,
      "byteOffset": 166680,
      "componentType": 5125,
      "count": 1344,
      "type": "SCALAR"
    },
    {
      "bufferView": 2,
      "byteOffset": 239568,
      "componentType": 5126,
      "count": 615,
      "max": [
        -2.9570140838623047,
        6.035457134246826,
        -59.61233139038086
      ],
      "min": [
        -15.080249786376953,
        -6.03545618057251,
        -87.17152404785156
      ],
      "type": "VEC3"
    },
    {
      "bufferView": 2,
      "byteOffset": 246948,
      "componentType": 5126,
      "count": 615,
      "max": [
        0.9999856352806091,
        0.9994025230407715,
        0.9999886155128479
      ],
      "min": [
        -0.9999701380729675,
        -0.9994024634361267,
        -0.9999914765357971
      ],
      "type": "VEC3"
    },
    {
      "bufferView": 3,
      "byteOffset": 159712,
      "componentType": 5126,
      "count": 615,
      "max": [
        0.3935815393924713,
        0.9999750852584839,
        0.9545276761054993,
        1.0
      ],
      "min": [
        -0.5607472062110901,
        -0.9999116659164429,
        -0.9999701380729675,
        1.0
      ],
      "type": "VEC4"
    },
    {
      "bufferView": 1,
      "byteOffset": 79856,
      "componentType": 5126,
      "count": 615,
      "max": [
        0.9838719964027405,
        0.9021779894828796
      ],
      "min": [
        0.140297994017601,
        0.6281049847602844
      ],
      "type": "VEC2"
    },
    {
      "bufferView": 0,
      "byteOffset": 172056,
      "componentType": 5125,
      "count": 3120,
      "type": "SCALAR"
    },
    {
      "bufferView": 2,
      "byteOffset": 254328,
      "componentType": 5126,
      "count": 1357,
      "max": [
        -1.4693870544433594,
        6.655415058135986,
        -59.0452880859375
      ],
      "min": [
        -3.261784076690674,
        -6.655415058135986,
        -72.05387878417969
      ],
      "type": "VEC3"
    },
    {
      "bufferView": 2,
      "byteOffset": 270612,
      "componentType": 5126,
      "count": 1357,
      "max": [
        0.9999963641166687,
        0.9997828602790833,
        0.9999998807907104
      ],
      "min": [
        -0.9996456503868103,
        -0.9997828602790833,
        -1.0
      ],
      "type": "VEC3"
    },
    {
      "bufferView": 3,
      "byteOffset": 169552,
      "componentType": 5126,
      "count": 1357,
      "max": [
        0.7145512700080872,
        0.9975414276123047,
        0.9987722635269165,
        1.0
      ],
      "min": [
        -0.7663893103599548,
        -1.0,
        -0.9987685084342957,
        1.0
      ],
      "type": "VEC4"
    },
    {
      "bufferView": 1,
      "byteOffset": 84776,
      "componentType": 5126,
      "count": 1357,
      "max": [
        0.6606500148773193,
        0.7423440217971802
      ],
      "min": [
        0.27894899249076843,
        0.2314170002937317
      ],
      "type": "VEC2"
    },
    {
      "bufferView": 0,
      "byteOffset": 184536,
      "componentType": 5125,
      "count": 6912,
      "type": "SCALAR"
    },
    {
      "bufferView": 2,
      "byteOffset": 286896,
      "componentType": 5126,
      "count": 564,
      "max": [
        32.222930908203125,
        15.656482696533203,
        -0.1076980009675026
      ],
      "min": [
        8.73060131072998,
        -15.656481742858887,
        -1.4894800186157227
      ],
      "type": "VEC3"
    },
    {
      "bufferView": 2,
      "byteOffset": 293664,
      "componentType": 5126,
      "count": 564,
      "max": [
        0.9997885227203369,
        0.99981290102005,
        -0.015009001828730106
      ],
      "min": [
        -0.9997425079345703,
        -0.9998148679733276,
        -1.0
      ],
      "type": "VEC3"
    },
    {
      "bufferView": 3,
      "byteOffset": 191264,
      "componentType": 5126,
      "count": 564,
      "max": [
        0.09842443466186523,
        0.7305706739425659,
        0.998769223690033,
        1.0
      ],
      "min": [
        -0.9674332737922668,
        -0.7871872186660767,
        -0.9987491369247437,
        1.0
      ],
      "type": "VEC4"
    },
    {
      "bufferView": 1,
      "byteOffset": 95632,
      "componentType": 5126,
      "count": 564,
      "max": [
        0.5896130204200745,
        0.5931649804115295
      ],
      "min": [
        0.04895799979567528,
        0.13403600454330444
      ],
      "type": "VEC2"
    },
    {
      "bufferView": 0,
      "byteOffset": 212184,
      "componentType": 5125,
      "count": 3072,
      "type": "SCALAR"
    },
    {
      "bufferView": 2,
      "byteOffset": 300432,
      "componentType": 5126,
      "count": 6,
      "max": [
        52.34416580200195,
        21.777183532714844,
        -54.532073974609375
      ],
      "min": [
        37.031471252441406,
        8.8477783203125,
        -54.532081604003906
      ],
      "type": "VEC3"
    },
    {
      "bufferView": 2,
      "byteOffset": 300504,
      "componentType": 5126,
      "count": 6,
      "max": [
        9.999999974752427e-07,
        0.0,
        1.0
      ],
      "min": [
        0.0,
        0.0,
        1.0
      ],
      "type": "VEC3"
    },
    {
      "bufferView": 3,
      "byteOffset": 200288,
      "componentType": 5126,
      "count": 6,
      "max": [
        0.0,
        -1.0,
        8.141570156998982e-19,
        1.0
      ],
      "min": [
        -8.141570100386741e-13,
        -1.0,
        0.0,
        1.0
      ],
      "type": "VEC4"
    },
    {
      "bufferView": 1,
      "byteOffset": 100144,
      "componentType": 5126,
      "count": 6,
      "max": [
        0.6535469889640808,
        0.22732099890708923
      ],
      "min": [
        0.5779950022697449,
        0.13784299790859222
      ],
      "type": "VEC2"
    },
    {
      "bufferView": 0,
      "byteOffset": 224472,
      "componentType": 5125,
      "count": 12,
      "type": "SCALAR"
    },
    {
      "bufferView": 2,
      "byteOffset": 300576,
      "componentType": 5126,
      "count": 5668,
      "max": [
        51.66278839111328,
        18.209821701049805,
        -43.639888763427734
      ],
      "min": [
        -2.4547181129455566,
        -18.209821701049805,
        -85.7509536743164
      ],
      "type": "VEC3"
    },
    {
      "bufferView": 2,
      "byteOffset": 368592,
      "componentType": 5126,
      "count": 5668,
      "max": [
        0.9997506141662598,
        0.9996684789657593,
        1.0
      ],
      "min": [
        -0.9999983310699463,
        -0.9996684789657593,
        -0.9998847842216492
      ],
      "type": "VEC3"
    },
    {
      "bufferView": 3,
      "byteOffset": 200384,
      "componentType": 5126,
      "count": 5668,
      "max": [
        0.9998432993888855,
        0.9999991059303284,
        0.9999997615814209,
        1.0
      ],
      "min": [
        -0.9999931454658508,
        -0.9999998211860657,
        -0.9999997019767761,
        1.0
      ],
      "type": "VEC4"
    },
    {
      "bufferView": 1,
      "byteOffset": 100192,
      "componentType": 5126,
      "count": 5668,
      "max": [
        0.7476720213890076,
        0.9980790019035339
      ],
      "min": [
        0.0019209999591112137,
        0.0019209999591112137
      ],
      "type": "VEC2"
    },
    {
      "bufferView": 0,
      "byteOffset": 224520,
      "componentType": 5125,
      "count": 31104,
      "type": "SCALAR"
    },
    {
      "bufferView": 2,
      "byteOffset": 436608,
      "componentType": 5126,
      "count": 377,
      "max": [
        47.87645721435547,
        15.040959358215332,
        -48.80463409423828
      ],
      "min": [
        11.118729591369629,
        -15.0409574508667,
        -82.65040588378906
      ],
      "type": "VEC3"
    },
    {
      "bufferView": 2,
      "byteOffset": 441132,
      "componentType": 5126,
      "count": 377,
      "max": [
        0.9998761415481567,
        0.9947646260261536,
        0.9957667589187622
      ],
      "min": [
        -0.9715674519538879,
        -0.9947648644447327,
        -0.9960465431213379
      ],
      "type": "VEC3"
    },
    {
      "bufferView": 3,
      "byteOffset": 291072,
      "componentType": 5126,
      "count": 377,
      "max": [
        0.9903965592384338,
        0.9999996423721313,
        0.9946514368057251,
        1.0
      ],
      "min": [
        -0.8622783422470093,
        -0.8262754678726196,
        -0.5894206166267395,
        1.0
      ],
      "type": "VEC4"
    },
    {
      "bufferView": 1,
      "byteOffset": 145536,
      "componentType": 5126,
      "count": 377,
      "max": [
        0.3479430079460144,
        0.6388069987297058
      ],
      "min": [
        0.027576999738812447,
        0.2896519899368286
      ],
      "type": "VEC2"
    },
    {
      "bufferView": 0,
      "byteOffset": 348936,
      "componentType": 5125,
      "count": 2016,
      "type": "SCALAR"
    },
    {
      "bufferView": 2,
      "byteOffset": 445656,
      "componentType": 5126,
      "count": 3298,
      "max": [
        42.958465576171875,
        18.947998046875,
        0.7921649813652039
      ],
      "min": [
        -0.9254639744758606,
        -18.948001861572266,
        -1.5579979419708252
      ],
      "type": "VEC3"
    },
    {
      "bufferView": 2,
      "byteOffset": 485232,
      "componentType": 5126,
      "count": 3298,
      "max": [
        0.9999334812164307,
        0.9998877644538879,
        1.0
      ],
      "min": [
        -0.9994980096817017,
        -0.99984210729599,
        -0.9999930262565613
      ],
      "type": "VEC3"
    },
    {
      "bufferView": 3,
      "byteOffset": 297104,
      "componentType": 5126,
      "count": 3298,
      "max": [
        0.9999984502792358,
        0.9991225600242615,
        0.9946120977401733,
        1.0
      ],
      "min": [
        -0.9999990463256836,
        -0.9905779957771301,
        -0.9994938969612122,
        1.0
      ],
      "type": "VEC4"
    },
    {
      "bufferView": 1,
      "byteOffset": 148552,
      "componentType": 5126,
      "count": 3298,
      "max": [
        0.8489000201225281,
        0.8542280197143555
      ],
      "min": [
        0.040894001722335815,
        0.20176100730895996
      ],
      "type": "VEC2"
    },
    {
      "bufferView": 0,
      "byteOffset": 357000,
      "componentType": 5125,
      "count": 17196,
      "type": "SCALAR"
    }
  ],
  "asset": {
    "extras": {
      "author": "Peter Tilley (https://sketchfab.com/drydoctoregg)",
      "license": "CC-BY-4.0 (http://creativecommons.org/licenses/by/4.0/)",
      "source": "https://sketchfab.com/3d-models/toilet-c61d83187be64d8ab89cecea70e20cce",
      "title": "Toilet"
    },
    "generator": "Sketchfab-16.54.0",
    "version": "2.0"
  },
  "bufferViews": [
    {
      "buffer": 0,
      "byteLength": 425784,
      "name": "floatBufferViews",
      "target": 34963
    },
    {
      "buffer": 0,
      "byteLength": 174936,
      "byteOffset": 425784,
      "byteStride": 8,
      "name": "floatBufferViews",
      "target": 34962
    },
    {
      "buffer": 0,
      "byteLength": 524808,
      "byteOffset": 600720,
      "byteStride": 12,
      "name": "floatBufferViews",
      "target": 34962
    },
    {
      "buffer": 0,
      "byteLength": 349872,
      "byteOffset": 1125528,
      "byteStride": 16,
      "name": "floatBufferViews",
      "target": 34962
    }
  ],
  "buffers": [
    {
      "byteLength": 1475400,
      "uri": "scene.bin"
    }
  ],
  "images": [
    {
      "uri": "textures/toilet_baseColor.png"
    },
    {
      "uri": "textures/toilet_metallicRoughness.png"
    },
    {
      "uri": "textures/toilet_normal.png"
    }
  ],
  "materials": [
    {
      "alphaMode": "BLEND",
      "doubleSided": true,
      "name": "toilet",
      "normalTexture": {
        "index": 2
      },
      "occlusionTexture": {
        "index": 1
      },
      "pbrMetallicRoughness": {
        "baseColorTexture": {
          "index": 0
        },
        "metallicRoughnessTexture": {
          "index": 1
        }
      }
    }
  ],
  "meshes": [
    {
      "name": "defaultMaterial",
      "primitives": [
        {
          "attributes": {
            "NORMAL": 1,
            "POSITION": 0,
            "TANGENT": 2,
            "TEXCOORD_0": 3
          },
          "indices": 4,
          "material": 0,
          "mode": 4
        }
      ]
    },
    {
      "name": "defaultMaterial",
      "primitives": [
        {
          "attributes": {
            "NORMAL": 6,
            "POSITION": 5,
            "TANGENT": 7,
            "TEXCOORD_0": 8
          },
          "indices": 9,
          "material": 0,
          "mode": 4
        }
      ]
    },
    {
      "name": "defaultMaterial",
      "primitives": [
        {
          "attributes": {
            "NORMAL": 11,
            "POSITION": 10,
            "TANGENT": 12,
            "TEXCOORD_0": 13
          },
          "indices": 14,
          "material": 0,
          "mode": 4
        }
      ]
    },
    {
      "name": "defaultMaterial",
      "primitives": [
        {
          "attributes": {
            "NORMAL": 16,
            "POSITION": 15,
            "TANGENT": 17,
            "TEXCOORD_0": 18
          },
          "indices": 19,
          "material": 0,
          "mode": 4
        }
      ]
    },
    {
      "name": "defaultMaterial",
      "primitives": [
        {
          "attributes": {
            "NORMAL": 21,
            "POSITION": 20,
            "TANGENT": 22,
            "TEXCOORD_0": 23
          },
          "indices": 24,
          "material": 0,
          "mode": 4
        }
      ]
    },
    {
      "name": "defaultMaterial",
      "primitives": [
        {
          "attributes": {
            "NORMAL": 26,
            "POSITION": 25,
            "TANGENT": 27,
            "TEXCOORD_0": 28
          },
          "indices": 29,
          "material": 0,
          "mode": 4
        }
      ]
    },
    {
      "name": "defaultMaterial",
      "primitives": [
        {
          "attributes": {
            "NORMAL": 31,
            "POSITION": 30,
            "TANGENT": 32,
            "TEXCOORD_0": 33
          },
          "indices": 34,
          "material": 0,
          "mode": 4
        }
      ]
    },
    {
      "name": "defaultMaterial",
      "primitives": [
        {
          "attributes": {
            "NORMAL": 36,
            "POSITION": 35,
            "TANGENT": 37,
            "TEXCOORD_0": 38
          },
          "indices": 39,
          "material": 0,
          "mode": 4
        }
      ]
    },
    {
      "name": "defaultMaterial",
      "primitives": [
        {
          "attributes": {
            "NORMAL": 41,
            "POSITION": 40,
            "TANGENT": 42,
            "TEXCOORD_0": 43
          },
          "indices": 44,
          "material": 0,
          "mode": 4
        }
      ]
    },
    {
      "name": "defaultMaterial",
      "primitives": [
        {
          "attributes": {
            "NORMAL": 46,
            "POSITION": 45,
            "TANGENT": 47,
            "TEXCOORD_0": 48
          },
          "indices": 49,
          "material": 0,
          "mode": 4
        }
      ]
    },
    {
      "name": "defaultMaterial",
      "primitives": [
        {
          "attributes": {
            "NORMAL": 51,
            "POSITION": 50,
            "TANGENT": 52,
            "TEXCOORD_0": 53
          },
          "indices": 54,
          "material": 0,
          "mode": 4
        }
      ]
    },
    {
      "name": "defaultMaterial",
      "primitives": [
        {
          "attributes": {
            "NORMAL": 56,
            "POSITION": 55,
            "TANGENT": 57,
            "TEXCOORD_0": 58
          },
          "indices": 59,
          "material": 0,
          "mode": 4
        }
      ]
    },
    {
      "name": "defaultMaterial",
      "primitives": [
        {
          "attributes": {
            "NORMAL": 61,
            "POSITION": 60,
            "TANGENT": 62,
            "TEXCOORD_0": 63
          },
          "indices": 64,
          "material": 0,
          "mode": 4
        }
      ]
    },
    {
      "name": "defaultMaterial",
      "primitives": [
        {
          "attributes": {
            "NORMAL": 66,
            "POSITION": 65,
            "TANGENT": 67,
            "TEXCOORD_0": 68
          },
          "indices": 69,
          "material": 0,
          "mode": 4
        }
      ]
    },
    {
      "name": "defaultMaterial",
      "primitives": [
        {
          "attributes": {
            "NORMAL": 71,
            "POSITION": 70,
            "TANGENT": 72,
            "TEXCOORD_0": 73
          },
          "indices": 74,
          "material": 0,
          "mode": 4
        }
      ]
    },
    {
      "name": "defaultMaterial",
      "primitives": [
        {
          "attributes": {
            "NORMAL": 76,
            "POSITION": 75,
            "TANGENT": 77,
            "TEXCOORD_0": 78
          },
          "indices": 79,
          "material": 0,
          "mode": 4
        }
      ]
    },
    {
      "name": "defaultMaterial",
      "primitives": [
        {
          "attributes": {
            "NORMAL": 81,
            "POSITION": 80,
            "TANGENT": 82,
            "TEXCOORD_0": 83
          },
          "indices": 84,
          "material": 0,
          "mode": 4
        }
      ]
    },
    {
      "name": "defaultMaterial",
      "primitives": [
        {
          "attributes": {
            "NORMAL": 86,
            "POSITION": 85,
            "TANGENT": 87,
            "TEXCOORD_0": 88
          },
          "indices": 89,
          "material": 0,
          "mode": 4
        }
      ]
    },
    {
      "name": "defaultMaterial",
      "primitives": [
        {
          "attributes": {
            "NORMAL": 91,
            "POSITION": 90,
            "TANGENT": 92,
            "TEXCOORD_0": 93
          },
          "indices": 94,
          "material": 0,
          "mode": 4
        }
      ]
    },
    {
      "name": "defaultMaterial",
      "primitives": [
        {
          "attributes": {
            "NORMAL": 96,
            "POSITION": 95,
            "TANGENT": 97,
            "TEXCOORD_0": 98
          },
          "indices": 99,
          "material": 0,
          "mode": 4
        }
      ]
    },
    {
      "name": "defaultMaterial",
      "primitives": [
        {
          "attributes": {
            "NORMAL": 101,
            "POSITION": 100,
            "TANGENT": 102,
            "TEXCOORD_0": 103
          },
          "indices": 104,
          "material": 0,
          "mode": 4
        }
      ]
    },
    {
      "name": "defaultMaterial",
      "primitives": [
        {
          "attributes": {
            "NORMAL": 106,
            "POSITION": 105,
            "TANGENT": 107,
            "TEXCOORD_0": 108
          },
          "indices": 109,
          "material": 0,
          "mode": 4
        }
      ]
    },
    {
      "name": "defaultMaterial",
      "primitives": [
        {
          "attributes": {
            "NORMAL": 111,
            "POSITION": 110,
            "TANGENT": 112,
            "TEXCOORD_0": 113
          },
          "indices": 114,
          "material": 0,
          "mode": 4
        }
      ]
    },
    {
      "name": "defaultMaterial",
      "primitives": [
        {
          "attributes": {
            "NORMAL": 116,
            "POSITION": 115,
            "TANGENT": 117,
            "TEXCOORD_0": 118
          },
          "indices": 119,
          "material": 0,
          "mode": 4
        }
      ]
    },
    {
      "name": "defaultMaterial",
      "primitives": [
        {
          "attributes": {
            "NORMAL": 121,
            "POSITION": 120,
            "TANGENT": 122,
            "TEXCOORD_0": 123
          },
          "indices": 124,
          "material": 0,
          "mode": 4
        }
      ]
    },
    {
      "name": "defaultMaterial",
      "primitives": [
        {
          "attributes": {
            "NORMAL": 126,
            "POSITION": 125,
            "TANGENT": 127,
            "TEXCOORD_0": 128
          },
          "indices": 129,
          "material": 0,
          "mode": 4
        }
      ]
    },
    {
      "name": "defaultMaterial",
      "primitives": [
        {
          "attributes": {
            "NORMAL": 131,
            "POSITION": 130,
            "TANGENT": 132,
            "TEXCOORD_0": 133
          },
          "indices": 134,
          "material": 0,
          "mode": 4
        }
      ]
    },
    {
      "name": "defaultMaterial",
      "primitives": [
        {
          "attributes": {
            "NORMAL": 136,
            "POSITION": 135,
            "TANGENT": 137,
            "TEXCOORD_0": 138
          },
          "indices": 139,
          "material": 0,
          "mode": 4
        }
      ]
    },
    {
      "name": "defaultMaterial",
      "primitives": [
        {
          "attributes": {
            "NORMAL": 141,
            "POSITION": 140,
            "TANGENT": 142,
            "TEXCOORD_0": 143
          },
          "indices": 144,
          "material": 0,
          "mode": 4
        }
      ]
    },
    {
      "name": "defaultMaterial",
      "primitives": [
        {
          "attributes": {
            "NORMAL": 146,
            "POSITION": 145,
            "TANGENT": 147,
            "TEXCOORD_0": 148
          },
          "indices": 149,
          "material": 0,
          "mode": 4
        }
      ]
    },
    {
      "name": "defaultMaterial",
      "primitives": [
        {
          "attributes": {
            "NORMAL": 151,
            "POSITION": 150,
            "TANGENT": 152,
            "TEXCOORD_0": 153
          },
          "indices": 154,
          "material": 0,
          "mode": 4
        }
      ]
    }
  ],
  "nodes": [
    {
      "children": [
        1
      ],
      "matrix": [
        1.0,
        0.0,
        0.0,
        0.0,
        0.0,
        2.220446049250313e-16,
        -1.0,
        0.0,
        0.0,
        1.0,
        2.220446049250313e-16,
        0.0,
        0.0,
        0.0,
        0.0,
        1.0
      ],
      "name": "Sketchfab_model"
    },
    {
      "children": [
        2,
        4,
        6,
        8,
        10,
        12,
        14,
        16,
        18,
        20,
        22,
        24,
        26,
        28,
        30,
        32,
        34,
        36,
        38,
        40,
        42,
        44,
        46,
        48,
        50,
        52,
        54,
        56,
        58,
        60,
        62
      ],
      "matrix": [
        1.0,
        0.0,
        0.0,
        0.0,
        0.0,
        -4.371139006309477e-08,
        0.999999999999999,
        0.0,
        0.0,
        -0.999999999999999,
        -4.371139006309477e-08,
        0.0,
        0.0,
        0.0,
        0.0,
        1.0
      ],
      "name": "Collada visual scene group"
    },
    {
      "children": [
        3
      ],
      "matrix": [
        1.0,
        0.0,
        0.0,
        0.0,
        0.0,
        -0.390235,
        -0.920715,
        0.0,
        0.0,
        0.920715,
        -0.390235,
        0.0,
        -70.009186,
        -95.814133,
        -29.938341,
        1.0
      ],
      "name": "toiletboltrear_low"
    },
    {
      "mesh": 0,
      "name": "defaultMaterial"
    },
    {
      "children": [
        5
      ],
      "matrix": [
        1.0,
        0.0,
        0.0,
        0.0,
        0.0,
        -0.537515,
        -0.843254,
        0.0,
        0.0,
        0.843254,
        -0.537515,
        0.0,
        -56.323833,
        -95.298553,
        -31.062086,
        1.0
      ],
      "name": "toiletboltfront_low"
    },
    {
      "mesh": 1,
      "name": "defaultMaterial"
    },
    {
      "children": [
        7
      ],
      "matrix": [
        1.0,
        0.0,
        0.0,
        0.0,
        0.0,
        0.0,
        -1.0,
        0.0,
        0.0,
        1.0,
        0.0,
        0.0,
        -80.160919,
        -61.998119,
        -31.951141,
        1.0
      ],
      "name": "toiletseatclampscrew_low"
    },
    {
      "mesh": 2,
      "name": "defaultMaterial"
    },
    {
      "children": [
        9
      ],
      "matrix": [
        1.0,
        0.0,
        0.0,
        0.0,
        0.0,
        0.0,
        -1.0,
        0.0,
        0.0,
        1.0,
        0.0,
        0.0,
        -80.160919,
        -60.008919,
        -31.951141,
        1.0
      ],
      "name": "toiletseatclampmain_low"
    },
    {
      "mesh": 3,
      "name": "defaultMaterial"
    },
    {
      "children": [
        11
      ],
      "matrix": [
        1.0,
        0.0,
        0.0,
        0.0,
        0.0,
        0.0,
        -1.0,
        0.0,
        0.0,
        1.0,
        0.0,
        0.0,
        -80.160919,
        -59.064213,
        -31.951139,
        1.0
      ],
      "name": "toiletseatclampgasket_low"
    },
    {
      "mesh": 4,
      "name": "defaultMaterial"
    },
    {
      "children": [
        13
      ],
      "matrix": [
        1.0,
        0.0,
        0.0,
        0.0,
        0.0,
        0.0,
        -1.0,
        0.0,
        0.0,
        1.0,
        0.0,
        0.0,
        -93.165512,
        -12.818073,
        -28.908903,
        1.0
      ],
      "name": "toiletbox_low"
    },
    {
      "mesh": 5,
      "name": "defaultMaterial"
    },
    {
      "children": [
        15
      ],
      "matrix": [
        1.0,
        0.0,
        0.0,
        0.0,
        0.0,
        0.0,
        -1.0,
        0.0,
        0.0,
        1.0,
        0.0,
        0.0,
        -93.165512,
        -12.818073,
        -29.856731,
        1.0
      ],
      "name": "toiletboxskirt_low"
    },
    {
      "mesh": 6,
      "name": "defaultMaterial"
    },
    {
      "children": [
        17
      ],
      "matrix": [
        -0.254324,
        0.967119,
        0.0,
        0.0,
        0.0,
        0.0,
        -1.0,
        0.0,
        -0.967119,
        -0.254324,
        0.0,
        0.0,
        -79.698586,
        -54.915859,
        -23.652761,
        1.0
      ],
      "name": "toiletlid_low"
    },
    {
      "mesh": 7,
      "name": "defaultMaterial"
    },
    {
      "children": [
        19
      ],
      "matrix": [
        1.0,
        0.0,
        0.0,
        0.0,
        0.0,
        0.0,
        -1.0,
        0.0,
        0.0,
        1.0,
        0.0,
        0.0,
        0.0,
        0.0,
        0.0,
        1.0
      ],
      "name": "toiletinlet1_low"
    },
    {
      "mesh": 8,
      "name": "defaultMaterial"
    },
    {
      "children": [
        21
      ],
      "matrix": [
        1.0,
        0.0,
        0.0,
        0.0,
        0.0,
        0.0,
        -1.0,
        0.0,
        0.0,
        1.0,
        0.0,
        0.0,
        -99.47094,
        -34.062443,
        -10.798999,
        1.0
      ],
      "name": "toiletblankinlet3_low"
    },
    {
      "mesh": 9,
      "name": "defaultMaterial"
    },
    {
      "children": [
        23
      ],
      "matrix": [
        1.0,
        0.0,
        0.0,
        0.0,
        0.0,
        0.0,
        -1.0,
        0.0,
        0.0,
        1.0,
        0.0,
        0.0,
        -99.47094,
        -34.062443,
        -42.69836,
        1.0
      ],
      "name": "toiletinlet2_low"
    },
    {
      "mesh": 10,
      "name": "defaultMaterial"
    },
    {
      "children": [
        25
      ],
      "matrix": [
        1.0,
        0.0,
        0.0,
        0.0,
        0.0,
        0.0,
        -1.0,
        0.0,
        0.0,
        1.0,
        0.0,
        0.0,
        0.0,
        0.0,
        0.0,
        1.0
      ],
      "name": "toiletinlet3_low"
    },
    {
      "mesh": 11,
      "name": "defaultMaterial"
    },
    {
      "children": [
        27
      ],
      "matrix": [
        1.0,
        0.0,
        0.0,
        0.0,
        0.0,
        0.0,
        -1.0,
        0.0,
        0.0,
        1.0,
        0.0,
        0.0,
        -105.363243,
        -32.671268,
        -7.960348,
        1.0
      ],
      "name": "toiletblankinlet4_low"
    },
    {
      "mesh": 12,
      "name": "defaultMaterial"
    },
    {
      "children": [
        29
      ],
      "matrix": [
        1.0,
        0.0,
        0.0,
        0.0,
        0.0,
        0.0,
        -1.0,
        0.0,
        0.0,
        1.0,
        0.0,
        0.0,
        -105.370918,
        -29.052399,
        -7.917496,
        1.0
      ],
      "name": "toiletblankinlet1_low"
    },
    {
      "mesh": 13,
      "name": "defaultMaterial"
    },
    {
      "children": [
        31
      ],
      "matrix": [
        1.0,
        0.0,
        0.0,
        0.0,
        0.0,
        0.0,
        -1.0,
        0.0,
        0.0,
        1.0,
        0.0,
        0.0,
        -105.370918,
        -29.052399,
        -7.917496,
        1.0
      ],
      "name": "toiletblankinlet2_low"
    },
    {
      "mesh": 14,
      "name": "defaultMaterial"
    },
    {
      "children": [
        33
      ],
      "matrix": [
        1.0,
        0.0,
        0.0,
        0.0,
        0.0,
        0.0,
        -1.0,
        0.0,
        0.0,
        1.0,
        0.0,
        0.0,
        -104.745361,
        -29.020449,
        -23.776356,
        1.0
      ],
      "name": "toiletwateroutlet1_low"
    },
    {
      "mesh": 15,
      "name": "defaultMaterial"
    },
    {
      "children": [
        35
      ],
      "matrix": [
        0.0,
        -1.0,
        0.0,
        0.0,
        0.0,
        0.0,
        -1.0,
        0.0,
        1.0,
        0.0,
        0.0,
        0.0,
        -90.60199,
        -6.588112,
        -9.35639,
        1.0
      ],
      "name": "toiletleverblank_low"
    },
    {
      "mesh": 16,
      "name": "defaultMaterial"
    },
    {
      "children": [
        37
      ],
      "matrix": [
        1.0,
        0.0,
        0.0,
        0.0,
        0.0,
        0.0,
        -1.0,
        0.0,
        0.0,
        1.0,
        0.0,
        0.0,
        -104.745361,
        -35.586742,
        -23.776356,
        1.0
      ],
      "name": "toiletwateroutlet4_low"
    },
    {
      "mesh": 17,
      "name": "defaultMaterial"
    },
    {
      "children": [
        39
      ],
      "matrix": [
        1.0,
        0.0,
        0.0,
        0.0,
        0.0,
        0.0,
        -1.0,
        0.0,
        0.0,
        1.0,
        0.0,
        0.0,
        -104.745361,
        -29.020449,
        -23.776356,
        1.0
      ],
      "name": "toiletwateroutlet2_low"
    },
    {
      "mesh": 18,
      "name": "defaultMaterial"
    },
    {
      "children": [
        41
      ],
      "matrix": [
        1.0,
        0.0,
        0.0,
        0.0,
        0.0,
        0.0,
        -1.0,
        0.0,
        0.0,
        1.0,
        0.0,
        0.0,
        -104.733894,
        -27.582069,
        -23.783316,
        1.0
      ],
      "name": "toiletwateroutlet3_low"
    },
    {
      "mesh": 19,
      "name": "defaultMaterial"
    },
    {
      "children": [
        43
      ],
      "matrix": [
        1.0,
        0.0,
        0.0,
        0.0,
        0.0,
        0.0,
        -1.0,
        0.0,
        0.0,
        1.0,
        0.0,
        0.0,
        -89.943962,
        -7.007401,
        -43.360146,
        1.0
      ],
      "name": "toiletlever_low"
    },
    {
      "mesh": 20,
      "name": "defaultMaterial"
    },
    {
      "children": [
        45
      ],
      "matrix": [
        1.0,
        0.0,
        0.0,
        0.0,
        0.0,
        0.0,
        -1.0,
        0.0,
        0.0,
        1.0,
        0.0,
        0.0,
        -89.558136,
        -12.818073,
        -23.652763,
        1.0
      ],
      "name": "toilethinge_low"
    },
    {
      "mesh": 21,
      "name": "defaultMaterial"
    },
    {
      "children": [
        47
      ],
      "matrix": [
        1.0,
        0.0,
        0.0,
        0.0,
        0.0,
        0.0,
        -1.0,
        0.0,
        0.0,
        1.0,
        0.0,
        0.0,
        3.607378,
        0.0,
        0.0,
        1.0
      ],
      "name": "toiletwasteskirt_low"
    },
    {
      "mesh": 22,
      "name": "defaultMaterial"
    },
    {
      "children": [
        49
      ],
      "matrix": [
        1.0,
        0.0,
        0.0,
        0.0,
        0.0,
        0.0,
        -1.0,
        0.0,
        0.0,
        1.0,
        0.0,
        0.0,
        -95.891281,
        -61.906151,
        -23.882729,
        1.0
      ],
      "name": "toiletwaterpipe_low"
    },
    {
      "mesh": 23,
      "name": "defaultMaterial"
    },
    {
      "children": [
        51
      ],
      "matrix": [
        1.0,
        0.0,
        0.0,
        0.0,
        0.0,
        0.0,
        -1.0,
        0.0,
        0.0,
        1.0,
        0.0,
        0.0,
        -89.558136,
        -12.818073,
        -23.652763,
        1.0
      ],
      "name": "toiletpipe_low"
    },
    {
      "mesh": 24,
      "name": "defaultMaterial"
    },
    {
      "children": [
        53
      ],
      "matrix": [
        1.0,
        0.0,
        0.0,
        0.0,
        0.0,
        0.0,
        -1.0,
        0.0,
        0.0,
        1.0,
        0.0,
        0.0,
        -89.558136,
        -12.818073,
        -23.652763,
        1.0
      ],
      "name": "toiletpipeseal_low"
    },
    {
      "mesh": 25,
      "name": "defaultMaterial"
    },
    {
      "children": [
        55
      ],
      "matrix": [
        -0.254324,
        0.967119,
        0.0,
        0.0,
        0.0,
        0.0,
        -1.0,
        0.0,
        -0.967119,
        -0.254324,
        0.0,
        0.0,
        -79.698586,
        -54.915859,
        -23.652761,
        1.0
      ],
      "name": "toiletpads_low"
    },
    {
      "mesh": 26,
      "name": "defaultMaterial"
    },
    {
      "children": [
        57
      ],
      "matrix": [
        1.0,
        0.0,
        0.0,
        0.0,
        0.0,
        0.0,
        -1.0,
        0.0,
        0.0,
        1.0,
        0.0,
        0.0,
        -105.370918,
        -29.052399,
        -8.280055,
        1.0
      ],
      "name": "water_low"
    },
    {
      "mesh": 27,
      "name": "defaultMaterial"
    },
    {
      "children": [
        59
      ],
      "matrix": [
        1.0,
        0.0,
        0.0,
        0.0,
        0.0,
        0.0,
        -1.0,
        0.0,
        0.0,
        1.0,
        0.0,
        0.0,
        -89.558136,
        -12.818073,
        -23.652763,
        1.0
      ],
      "name": "toiletbowl_low"
    },
    {
      "mesh": 28,
      "name": "defaultMaterial"
    },
    {
      "children": [
        61
      ],
      "matrix": [
        1.0,
        0.0,
        0.0,
        0.0,
        0.0,
        0.0,
        -1.0,
        0.0,
        0.0,
        1.0,
        0.0,
        0.0,
        -89.558136,
        -12.818073,
        -23.652763,
        1.0
      ],
      "name": "toiletbowl2_low"
    },
    {
      "mesh": 29,
      "name": "defaultMaterial"
    },
    {
      "children": [
        63
      ],
      "matrix": [
        -0.254324,
        0.967119,
        0.0,
        0.0,
        0.0,
        0.0,
        -1.0,
        0.0,
        -0.967119,
        -0.254324,
        0.0,
        0.0,
        -79.698586,
        -54.915859,
        -23.652761,
        1.0
      ],
      "name": "lid1_low"
    },
    {
      "mesh": 30,
      "name": "defaultMaterial"
    }
  ],
  "samplers": [
    {
      "magFilter": 9729,
      "minFilter": 9987,
      "wrapS": 10497,
      "wrapT": 10497
    }
  ],
  "scene": 0,
  "scenes": [
    {
      "name": "Sketchfab_Scene",
      "nodes": [
        0
      ]
    }
  ],
  "textures": [
    {
      "sampler": 0,
      "source": 0
    },
    {
      "sampler": 0,
      "source": 1
    },
    {
      "sampler": 0,
      "source": 2
    }
  ]
}
