{
  "accessors": [
    {
      "bufferView": 2,
      "componentType": 5126,
      "count": 671,
      "max": [
        38.07802963256836,
        22.779489517211914,
        72.44862365722656
      ],
      "min": [
        -38.982513427734375,
        -23.5288143157959,
        0.006843999959528446
      ],
      "type": "VEC3"
    },
    {
      "bufferView": 2,
      "byteOffset": 8052,
      "componentType": 5126,
      "count": 671,
      "max": [
        1.0,
        1.0,
        1.0
      ],
      "min": [
        -1.0,
        -1.0,
        -1.0
      ],
      "type": "VEC3"
    },
    {
      "bufferView": 3,
      "componentType": 5126,
      "count": 671,
      "max": [
        1.0,
        1.0,
        1.0,
        1.0
      ],
      "min": [
        -1.0,
        -1.0,
        -0.0761025995016098,
        1.0
      ],
      "type": "VEC4"
    },
    {
      "bufferView": 1,
      "componentType": 5126,
      "count": 671,
      "max": [
        0.9926000237464905,
        0.9700999855995178
      ],
      "min": [
        0.007400000002235174,
        0.007400000002235174
      ],
      "type": "VEC2"
    },
    {
      "bufferView": 0,
      "componentType": 5125,
      "count": 1917,
      "type": "SCALAR"
    },
    {
      "bufferView": 2,
      "byteOffset": 16104,
      "componentType": 5126,
      "count": 102,
      "max": [
        39.41753005981445,
        24.093578338623047,
        74.72090911865234
      ],
      "min": [
        -40.33694076538086,
        -25.022327423095703,
        74.72089385986328
      ],
      "type": "VEC3"
    },
    {
      "bufferView": 2,
      "byteOffset": 17328,
      "componentType": 5126,
      "count": 102,
      "max": [
        0.0,
        -0.0,
        1.0
      ],
      "min": [
        0.0,
        -0.0,
        1.0
      ],
      "type": "VEC3"
    },
    {
      "bufferView": 3,
      "byteOffset": 10736,
      "componentType": 5126,
      "count": 102,
      "max": [
        0.008464018814265728,
        1.0,
        0.0,
        1.0
      ],
      "min": [
        -0.006483818404376507,
        0.9999642372131348,
        0.0,
        1.0
      ],
      "type": "VEC4"
    },
    {
      "bufferView": 1,
      "byteOffset": 5368,
      "componentType": 5126,
      "count": 102,
      "max": [
        0.3783000111579895,
        0.5986999869346619
      ],
      "min": [
        0.024900000542402267,
        0.024900000542402267
      ],
      "type": "VEC2"
    },
    {
      "bufferView": 0,
      "byteOffset": 7668,
      "componentType": 5125,
      "count": 408,
      "type": "SCALAR"
    },
    {
      "bufferView": 2,
      "byteOffset": 18552,
      "componentType": 5126,
      "count": 4026,
      "max": [
        39.71846389770508,
        24.39298439025879,
        90.11659240722656
      ],
      "min": [
        -40.6455192565918,
        -25.765283584594727,
        25.830347061157227
      ],
      "type": "VEC3"
    },
    {
      "bufferView": 2,
      "byteOffset": 66864,
      "componentType": 5126,
      "count": 4026,
      "max": [
        1.0,
        1.0,
        1.0
      ],
      "min": [
        -1.0,
        -1.0,
        -1.0
      ],
      "type": "VEC3"
    },
    {
      "bufferView": 3,
      "byteOffset": 12368,
      "componentType": 5126,
      "count": 4026,
      "max": [
        1.0,
        1.0,
        0.9846229553222656,
        1.0
      ],
      "min": [
        -1.0,
        -1.0,
        -0.9996998310089111,
        1.0
      ],
      "type": "VEC4"
    },
    {
      "bufferView": 1,
      "byteOffset": 6184,
      "componentType": 5126,
      "count": 4026,
      "max": [
        0.9750999808311462,
        0.9369999766349792
      ],
      "min": [
        0.024900000542402267,
        0.024900000542402267
      ],
      "type": "VEC2"
    },
    {
      "bufferView": 0,
      "byteOffset": 9300,
      "componentType": 5125,
      "count": 17058,
      "type": "SCALAR"
    }
  ],
  "asset": {
    "extras": {
      "author": "Brandon Westlake (https://sketchfab.com/dr.badass2142)",
      "license": "SKETCHFAB Standard (https://sketchfab.com/licenses)",
      "source": "https://sketchfab.com/3d-models/bathroom-vanity-with-marble-topfree-0c183eb640234ab38bd64980458d65e3",
      "title": "Bathroom Vanity with Marble Top(FREE)"
    },
    "generator": "Sketchfab-16.16.0",
    "version": "2.0"
  },
  "bufferViews": [
    {
      "buffer": 0,
      "byteLength": 77532,
      "name": "floatBufferViews",
      "target": 34963
    },
    {
      "buffer": 0,
      "byteLength": 38392,
      "byteOffset": 77532,
      "byteStride": 8,
      "name": "floatBufferViews",
      "target": 34962
    },
    {
      "buffer": 0,
      "byteLength": 115176,
      "byteOffset": 115924,
      "byteStride": 12,
      "name": "floatBufferViews",
      "target": 34962
    },
    {
      "buffer": 0,
      "byteLength": 76784,
      "byteOffset": 231100,
      "byteStride": 16,
      "name": "floatBufferViews",
      "target": 34962
    }
  ],
  "buffers": [
    {
      "byteLength": 307884,
      "uri": "scene.bin"
    }
  ],
  "extensionsUsed": [
    "KHR_materials_specular"
  ],
  "images": [
    {
      "uri": "textures/Cabinet_baseColor.png"
    },
    {
      "uri": "textures/Cabinet_metallicRoughness.png"
    },
    {
      "uri": "textures/Cabinet_normal.png"
    },
    {
      "uri": "textures/Cabinet_specularf0.png"
    },
    {
      "uri": "textures/Faucet__Counter_Top_baseColor.png"
    },
    {
      "uri": "textures/Faucet__Counter_Top_metallicRoughness.png"
    },
    {
      "uri": "textures/Faucet__Counter_Top_normal.png"
    },
    {
      "uri": "textures/Faucet__Counter_Top_specularf0.png"
    }
  ],
  "materials": [
    {
      "doubleSided": true,
      "extensions": {
        "KHR_materials_specular": {
          "specularColorFactor": [
            1.0,
            1.0,
            1.0
          ],
          "specularFactor": 1.0,
          "specularTexture": {
            "index": 3
          }
        }
      },
      "name": "Cabinet",
      "normalTexture": {
        "index": 2
      },
      "occlusionTexture": {
        "index": 1
      },
      "pbrMetallicRoughness": {
        "baseColorTexture": {
          "index": 0
        },
        "metallicRoughnessTexture": {
          "index": 1
        }
      }
    },
    {
      "doubleSided": true,
      "extensions": {
        "KHR_materials_specular": {
          "specularColorFactor": [
            1.0,
            1.0,
            1.0
          ],
          "specularFactor": 1.0,
          "specularTexture": {
            "index": 7
          }
        }
      },
      "name": "Faucet__Counter_Top",
      "normalTexture": {
        "index": 6
      },
      "occlusionTexture": {
        "index": 5
      },
      "pbrMetallicRoughness": {
        "baseColorTexture": {
          "index": 4
        },
        "metallicRoughnessTexture": {
          "index": 5
        }
      }
    }
  ],
  "meshes": [
    {
      "name": "Object_0",
      "primitives": [
        {
          "attributes": {
            "NORMAL": 1,
            "POSITION": 0,
            "TANGENT": 2,
            "TEXCOORD_0": 3
          },
          "indices": 4,
          "material": 0,
          "mode": 4
        }
      ]
    },
    {
      "name": "Object_1",
      "primitives": [
        {
          "attributes": {
            "NORMAL": 6,
            "POSITION": 5,
            "TANGENT": 7,
            "TEXCOORD_0": 8
          },
          "indices": 9,
          "material": 1,
          "mode": 4
        }
      ]
    },
    {
      "name": "Object_2",
      "primitives": [
        {
          "attributes": {
            "NORMAL": 11,
            "POSITION": 10,
            "TANGENT": 12,
            "TEXCOORD_0": 13
          },
          "indices": 14,
          "material": 1,
          "mode": 4
        }
      ]
    }
  ],
  "nodes": [
    {
      "children": [
        1
      ],
      "matrix": [
        0.03340796381235123,
        0.0,
        0.0,
        0.0,
        0.0,
        7.418058126063271e-18,
        -0.03340796381235123,
        0.0,
        0.0,
        0.03340796381235123,
        7.418058126063271e-18,
        0.0,
        0.0,
        0.0,
        0.0,
        1.0
      ],
      "name": "Sketchfab_model"
    },
    {
      "children": [
        2,
        3,
        4
      ],
      "name": "Marble_Bathroom_Sink.obj.cleaner.materialmerger.gles"
    },
    {
      "mesh": 0,
      "name": "Object_2"
    },
    {
      "mesh": 1,
      "name": "Object_3"
    },
    {
      "mesh": 2,
      "name": "Object_4"
    }
  ],
  "samplers": [
    {
      "magFilter": 9729,
      "minFilter": 9987,
      "wrapS": 10497,
      "wrapT": 10497
    }
  ],
  "scene": 0,
  "scenes": [
    {
      "name": "Sketchfab_Scene",
      "nodes": [
        0
      ]
    }
  ],
  "textures": [
    {
      "sampler": 0,
      "source": 0
    },
    {
      "sampler": 0,
      "source": 1
    },
    {
      "sampler": 0,
      "source": 2
    },
    {
      "sampler": 0,
      "source": 3
    },
    {
      "sampler": 0,
      "source": 4
    },
    {
      "sampler": 0,
      "source": 5
    },
    {
      "sampler": 0,
      "source": 6
    },
    {
      "sampler": 0,
      "source": 7
    }
  ]
}
