{
  "asset": {
    "version": "2.0",
    "generator": "THREE.GLTFExporter r181"
  },
  "scenes": [
    {
      "name": "AuxScene",
      "nodes": [
        0
      ]
    }
  ],
  "scene": 0,
  "nodes": [
    {
      "children": [
        1
      ]
    },
    {
      "children": [
        2
      ]
    },
    {
      "children": [
        3
      ]
    },
    {
      "children": [
        4
      ]
    },
    {
      "rotation": [
        0,
        0.3826834323650898,
        0,
        0.9238795325112867
      ],
      "scale": [
        0.29507229271171437,
        -0.29507229271171437,
        0.29507229271171437
      ],
      "children": [
        5,
        7
      ]
    },
    {
      "children": [
        6
      ]
    },
    {
      "translation": [
        -169.4499969482422,
        -97.22500061057508,
        -10.75
      ],
      "mesh": 0
    },
    {
      "children": [
        8
      ]
    },
    {
      "translation": [
        -169.4499969482422,
        -97.22500061057508,
        -10.75
      ],
      "mesh": 1
    }
  ],
  "bufferViews": [
    {
      "buffer": 0,
      "byteOffset": 0,
      "byteLength": 161856,
      "target": 34962,
      "byteStride": 12
    },
    {
      "buffer": 0,
      "byteOffset": 161856,
      "byteLength": 107904,
      "target": 34962,
      "byteStride": 8
    },
    {
      "buffer": 0,
      "byteOffset": 269760,
      "byteLength": 161856,
      "target": 34962,
      "byteStride": 12
    },
    {
      "buffer": 0,
      "byteOffset": 431616,
      "byteLength": 74808,
      "target": 34962,
      "byteStride": 12
    },
    {
      "buffer": 0,
      "byteOffset": 506424,
      "byteLength": 49872,
      "target": 34962,
      "byteStride": 8
    },
    {
      "buffer": 0,
      "byteOffset": 556296,
      "byteLength": 74808,
      "target": 34962,
      "byteStride": 12
    }
  ],
  "buffers": [
    {
      "byteLength": 631104,
      "uri": "data:application/octet-stream;base64,"
    }
  ],
  "accessors": [
    {
      "bufferView": 0,
      "componentType": 5126,
      "count": 13488,
      "max": [
        146.1300048828125,
        194.47000122070312,
        21.5
      ],
      "min": [
        -3.774758283725532e-15,
        -0.019999999552965164,
        0
      ],
      "type": "VEC3"
    },
    {
      "bufferView": 1,
      "componentType": 5126,
      "count": 13488,
      "max": [
        174.57591247558594,
        194.47000122070312
      ],
      "min": [
        -3.774758283725532e-15,
        -20.5
      ],
      "type": "VEC2"
    },
    {
      "bufferView": 2,
      "componentType": 5126,
      "count": 13488,
      "max": [
        0.9999848008155823,
        1,
        1
      ],
      "min": [
        -1,
        -1,
        -1
      ],
      "type": "VEC3"
    },
    {
      "bufferView": 3,
      "componentType": 5126,
      "count": 6234,
      "max": [
        338.8999938964844,
        189.35000610351562,
        21.5
      ],
      "min": [
        177.38999938964844,
        5.130000114440918,
        0
      ],
      "type": "VEC3"
    },
    {
      "bufferView": 4,
      "componentType": 5126,
      "count": 6234,
      "max": [
        338.8999938964844,
        189.35000610351562
      ],
      "min": [
        5.130000114440918,
        -20.5
      ],
      "type": "VEC2"
    },
    {
      "bufferView": 5,
      "componentType": 5126,
      "count": 6234,
      "max": [
        1,
        1,
        1
      ],
      "min": [
        -1,
        -1,
        -1
      ],
      "type": "VEC3"
    }
  ],
  "materials": [
    {
      "pbrMetallicRoughness": {
        "baseColorFactor": [
          0.01680737574872402,
          0.013702083043526807,
          0.014443843592229466,
          1
        ],
        "metallicFactor": 1,
        "roughnessFactor": 0.4
      },
      "doubleSided": true,
      "extras": {
        "originalProperties": {
          "color": 2301728,
          "roughness": 0.4,
          "metalness": 1,
          "clearcoat": 0,
          "clearcoatRoughness": 0.01,
          "transmission": 0,
          "ior": 1.4,
          "opacity": 1,
          "sheen": 0,
          "sheenRoughness": 0
        },
        "isHole": false
      },
      "extensions": {
        "KHR_materials_ior": {
          "ior": 1.4
        }
      }
    },
    {
      "pbrMetallicRoughness": {
        "baseColorFactor": [
          0.01680737574872402,
          0.013702083043526807,
          0.014443843592229466,
          1
        ],
        "metallicFactor": 1,
        "roughnessFactor": 0.4
      },
      "doubleSided": true,
      "extras": {
        "originalProperties": {
          "color": 2301728,
          "roughness": 0.4,
          "metalness": 1,
          "clearcoat": 0,
          "clearcoatRoughness": 0.01,
          "transmission": 0,
          "ior": 1.4,
          "opacity": 1,
          "sheen": 0,
          "sheenRoughness": 0
        },
        "isHole": false
      },
      "extensions": {
        "KHR_materials_ior": {
          "ior": 1.4
        }
      }
    }
  ],
  "meshes": [
    {
      "primitives": [
        {
          "mode": 4,
          "attributes": {
            "POSITION": 0,
            "TEXCOORD_0": 1,
            "NORMAL": 2
          },
          "material": 0
        }
      ]
    },
    {
      "primitives": [
        {
          "mode": 4,
          "attributes": {
            "POSITION": 3,
            "TEXCOORD_0": 4,
            "NORMAL": 5
          },
          "material": 1
        }
      ]
    }
  ],
  "extensionsUsed": [
    "KHR_materials_ior"
  ]
}