{
  "accessors": [
    {
      "bufferView": 2,
      "componentType": 5126,
      "count": 18432,
      "max": [
        1.1458592414855957,
        1.0330660343170166,
        0.3043127655982971
      ],
      "min": [
        -1.1459211111068726,
        -1.1435164213180542,
        -0.17763683199882507
      ],
      "type": "VEC3"
    },
    {
      "bufferView": 2,
      "byteOffset": 221184,
      "componentType": 5126,
      "count": 18432,
      "max": [
        0.998690664768219,
        0.9999988079071045,
        0.9999999403953552
      ],
      "min": [
        -0.9986910223960876,
        -0.9999986886978149,
        -1.0
      ],
      "type": "VEC3"
    },
    {
      "bufferView": 1,
      "componentType": 5126,
      "count": 18432,
      "max": [
        0.8750001192092896,
        1.0000001192092896
      ],
      "min": [
        0.125,
        0.0
      ],
      "type": "VEC2"
    },
    {
      "bufferView": 0,
      "componentType": 5125,
      "count": 27648,
      "type": "SCALAR"
    },
    {
      "bufferView": 2,
      "byteOffset": 442368,
      "componentType": 5126,
      "count": 416,
      "max": [
        1.226539969444275,
        1.2265398502349854,
        0.0033990219235420227
      ],
      "min": [
        -1.2265398502349854,
        -1.2265400886535645,
        -0.3141937255859375
      ],
      "type": "VEC3"
    },
    {
      "bufferView": 2,
      "byteOffset": 447360,
      "componentType": 5126,
      "count": 416,
      "max": [
        0.9951848983764648,
        0.9951848387718201,
        1.0
      ],
      "min": [
        -0.9951848983764648,
        -0.9951848387718201,
        0.0
      ],
      "type": "VEC3"
    },
    {
      "bufferView": 1,
      "byteOffset": 147456,
      "componentType": 5126,
      "count": 416,
      "max": [
        0.0,
        0.0
      ],
      "min": [
        0.0,
        0.0
      ],
      "type": "VEC2"
    },
    {
      "bufferView": 0,
      "byteOffset": 110592,
      "componentType": 5125,
      "count": 666,
      "type": "SCALAR"
    },
    {
      "bufferView": 2,
      "byteOffset": 452352,
      "componentType": 5126,
      "count": 44742,
      "max": [
        3.2318387031555176,
        3.5899484157562256,
        6.479238510131836
      ],
      "min": [
        -3.2348058223724365,
        -5.256990909576416,
        -1.0000001192092896
      ],
      "type": "VEC3"
    },
    {
      "bufferView": 2,
      "byteOffset": 989256,
      "componentType": 5126,
      "count": 44742,
      "max": [
        0.9999807476997375,
        0.9998900890350342,
        1.0
      ],
      "min": [
        -0.9999807476997375,
        -0.9997758865356445,
        -1.0
      ],
      "type": "VEC3"
    },
    {
      "bufferView": 1,
      "byteOffset": 150784,
      "componentType": 5126,
      "count": 44742,
      "max": [
        0.8750001788139343,
        1.0000001192092896
      ],
      "min": [
        0.1249999925494194,
        0.0
      ],
      "type": "VEC2"
    },
    {
      "bufferView": 0,
      "byteOffset": 113256,
      "componentType": 5125,
      "count": 67200,
      "type": "SCALAR"
    },
    {
      "bufferView": 2,
      "byteOffset": 1526160,
      "componentType": 5126,
      "count": 928,
      "max": [
        1.0,
        1.0,
        0.6021011471748352
      ],
      "min": [
        -1.0,
        -1.0,
        0.0
      ],
      "type": "VEC3"
    },
    {
      "bufferView": 2,
      "byteOffset": 1537296,
      "componentType": 5126,
      "count": 928,
      "max": [
        0.9951848387718201,
        0.9951848387718201,
        0.2988748252391815
      ],
      "min": [
        -0.9951848387718201,
        -0.9951848387718201,
        -1.0
      ],
      "type": "VEC3"
    },
    {
      "bufferView": 1,
      "byteOffset": 508720,
      "componentType": 5126,
      "count": 928,
      "max": [
        0.0,
        0.0
      ],
      "min": [
        0.0,
        0.0
      ],
      "type": "VEC2"
    },
    {
      "bufferView": 0,
      "byteOffset": 382056,
      "componentType": 5125,
      "count": 1434,
      "type": "SCALAR"
    },
    {
      "bufferView": 2,
      "byteOffset": 1548432,
      "componentType": 5126,
      "count": 10751,
      "max": [
        1.6971349716186523,
        2.120163917541504,
        0.9581390023231506
      ],
      "min": [
        -1.6971348524093628,
        -7.5816144943237305,
        -0.23502948880195618
      ],
      "type": "VEC3"
    },
    {
      "bufferView": 2,
      "byteOffset": 1677444,
      "componentType": 5126,
      "count": 10751,
      "max": [
        0.999992311000824,
        1.0,
        0.9999939799308777
      ],
      "min": [
        -0.9999923706054688,
        -1.0,
        -0.9999977350234985
      ],
      "type": "VEC3"
    },
    {
      "bufferView": 1,
      "byteOffset": 516144,
      "componentType": 5126,
      "count": 10751,
      "max": [
        0.8750001192092896,
        1.0000001192092896
      ],
      "min": [
        0.125,
        0.0
      ],
      "type": "VEC2"
    },
    {
      "bufferView": 0,
      "byteOffset": 387792,
      "componentType": 5125,
      "count": 16128,
      "type": "SCALAR"
    }
  ],
  "asset": {
    "extras": {
      "author": "Jarad Fraser (https://sketchfab.com/JaradFraser)",
      "license": "CC-BY-4.0 (http://creativecommons.org/licenses/by/4.0/)",
      "source": "https://sketchfab.com/3d-models/sink-faucet-c22b82716aed4c03bafaa2cb10cb64da",
      "title": "Sink faucet"
    },
    "generator": "Sketchfab-12.68.0",
    "version": "2.0"
  },
  "bufferViews": [
    {
      "buffer": 0,
      "byteLength": 452304,
      "name": "floatBufferViews",
      "target": 34963
    },
    {
      "buffer": 0,
      "byteLength": 602152,
      "byteOffset": 452304,
      "byteStride": 8,
      "name": "floatBufferViews",
      "target": 34962
    },
    {
      "buffer": 0,
      "byteLength": 1806456,
      "byteOffset": 1054456,
      "byteStride": 12,
      "name": "floatBufferViews",
      "target": 34962
    }
  ],
  "buffers": [
    {
      "byteLength": 2860912,
      "uri": "scene.bin"
    }
  ],
  "materials": [
    {
      "doubleSided": true,
      "name": "Material.002",
      "pbrMetallicRoughness": {
        "baseColorFactor": [
          0.5090825212502053,
          0.5090825212502053,
          0.5090825212502053,
          1.0
        ],
        "metallicFactor": 0.0,
        "roughnessFactor": 0.8042929062619704
      }
    },
    {
      "doubleSided": true,
      "name": "Material.003",
      "pbrMetallicRoughness": {
        "baseColorFactor": [
          0.645361,
          0.645361,
          0.645361,
          1.0
        ],
        "metallicFactor": 0.8407739452419605,
        "roughnessFactor": 0.4145933276179705
      }
    },
    {
      "doubleSided": true,
      "name": "Material.004",
      "pbrMetallicRoughness": {
        "baseColorFactor": [
          0.564112,
          0.564112,
          0.564112,
          1.0
        ],
        "roughnessFactor": 0.8958439211126636
      }
    }
  ],
  "meshes": [
    {
      "name": "Cube_Material.002_0",
      "primitives": [
        {
          "attributes": {
            "NORMAL": 1,
            "POSITION": 0,
            "TEXCOORD_0": 2
          },
          "indices": 3,
          "material": 0,
          "mode": 4
        }
      ]
    },
    {
      "name": "Circle_Material.003_0",
      "primitives": [
        {
          "attributes": {
            "NORMAL": 5,
            "POSITION": 4,
            "TEXCOORD_0": 6
          },
          "indices": 7,
          "material": 1,
          "mode": 4
        }
      ]
    },
    {
      "name": "Cube.001_Material.003_0",
      "primitives": [
        {
          "attributes": {
            "NORMAL": 9,
            "POSITION": 8,
            "TEXCOORD_0": 10
          },
          "indices": 11,
          "material": 1,
          "mode": 4
        }
      ]
    },
    {
      "name": "Circle.001_Material.004_0",
      "primitives": [
        {
          "attributes": {
            "NORMAL": 13,
            "POSITION": 12,
            "TEXCOORD_0": 14
          },
          "indices": 15,
          "material": 2,
          "mode": 4
        }
      ]
    },
    {
      "name": "Cube.002_Material.004_0",
      "primitives": [
        {
          "attributes": {
            "NORMAL": 17,
            "POSITION": 16,
            "TEXCOORD_0": 18
          },
          "indices": 19,
          "material": 2,
          "mode": 4
        }
      ]
    }
  ],
  "nodes": [
    {
      "children": [
        1
      ],
      "matrix": [
        1.0,
        0.0,
        0.0,
        0.0,
        0.0,
        2.220446049250313e-16,
        -1.0,
        0.0,
        0.0,
        1.0,
        2.220446049250313e-16,
        0.0,
        0.0,
        0.0,
        0.0,
        1.0
      ],
      "name": "Sketchfab_model"
    },
    {
      "children": [
        2
      ],
      "matrix": [
        1.0,
        0.0,
        0.0,
        0.0,
        0.0,
        0.0,
        1.0,
        0.0,
        0.0,
        -1.0,
        0.0,
        0.0,
        0.0,
        0.0,
        0.0,
        1.0
      ],
      "name": "c57e7c10ed5f4735aafa68f3bb80c5f6.fbx"
    },
    {
      "children": [
        3,
        5,
        7,
        9,
        11,
        13,
        16
      ],
      "name": "RootNode"
    },
    {
      "children": [
        4
      ],
      "matrix": [
        100.0,
        0.0,
        0.0,
        0.0,
        0.0,
        -1.629206793918314e-05,
        -99.99999999999868,
        0.0,
        0.0,
        99.99999999999868,
        -1.629206793918314e-05,
        0.0,
        0.0031027619261294603,
        20.64287567138672,
        -7.51267671585083,
        1.0
      ],
      "name": "Cube"
    },
    {
      "mesh": 0,
      "name": "Cube_Material.002_0"
    },
    {
      "children": [
        6
      ],
      "matrix": [
        9.186121940612793,
        0.0,
        0.0,
        0.0,
        0.0,
        -1.496609227540845e-06,
        -9.186121940612672,
        0.0,
        0.0,
        9.186121940612672,
        -1.496609227540845e-06,
        0.0,
        0.0,
        13.426223754882813,
        -21.366065979003906,
        1.0
      ],
      "name": "Circle"
    },
    {
      "mesh": 1,
      "name": "Circle_Material.003_0"
    },
    {
      "children": [
        8
      ],
      "matrix": [
        9.260793685913086,
        0.0,
        0.0,
        0.0,
        0.0,
        -1.5087747990165426e-06,
        -9.260793685912963,
        0.0,
        0.0,
        9.260793685912963,
        -1.5087747990165426e-06,
        0.0,
        0.0,
        50.87192153930664,
        -64.86307525634766,
        1.0
      ],
      "name": "Cube.001"
    },
    {
      "mesh": 2,
      "name": "Cube.001_Material.003_0"
    },
    {
      "children": [
        10
      ],
      "matrix": [
        5.153692722320557,
        0.0,
        0.0,
        0.0,
        0.0,
        -8.396431196972022e-07,
        -5.153692722320488,
        0.0,
        0.0,
        5.153692722320488,
        -8.396431196972022e-07,
        0.0,
        0.0,
        50.24455642700195,
        -69.59388732910156,
        1.0
      ],
      "name": "Circle.001"
    },
    {
      "mesh": 3,
      "name": "Circle.001_Material.004_0"
    },
    {
      "children": [
        12
      ],
      "matrix": [
        2.015889883041382,
        0.0,
        0.0,
        0.0,
        0.0,
        -4.689685326595055e-07,
        -2.8785083293914413,
        0.0,
        0.0,
        2.015889883041355,
        -3.284301493242215e-07,
        0.0,
        0.0,
        53.85495376586914,
        -69.57862091064453,
        1.0
      ],
      "name": "Cube.002"
    },
    {
      "mesh": 4,
      "name": "Cube.002_Material.004_0"
    },
    {
      "children": [
        14
      ],
      "matrix": [
        100.0,
        0.0,
        0.0,
        0.0,
        0.0,
        99.99999999999972,
        -7.5497901264043296e-06,
        0.0,
        0.0,
        7.5497901264043296e-06,
        99.99999999999972,
        0.0,
        0.0,
        245.58567810058594,
        -51.00457000732422,
        1.0
      ],
      "name": "Sun"
    },
    {
      "children": [
        15
      ],
      "matrix": [
        1.0,
        0.0,
        0.0,
        0.0,
        0.0,
        2.220446049250313e-16,
        1.0,
        0.0,
        0.0,
        -1.0,
        2.220446049250313e-16,
        0.0,
        0.0,
        0.0,
        0.0,
        1.0
      ],
      "name": "Object_14"
    },
    {
      "name": "Object_15"
    },
    {
      "children": [
        17
      ],
      "matrix": [
        78.79465866640217,
        -40.67362750447846,
        -46.22832239301041,
        0.0,
        35.081691743792184,
        91.35456214991119,
        -20.582003760362067,
        0.0,
        50.60313291454378,
        -0.0001579505710619708,
        86.2515186248163,
        0.0,
        -478.3576354980469,
        292.887939453125,
        289.3501892089844,
        1.0
      ],
      "name": "Camera"
    },
    {
      "name": "Object_17"
    }
  ],
  "scene": 0,
  "scenes": [
    {
      "name": "Sketchfab_Scene",
      "nodes": [
        0
      ]
    }
  ]
}
