{
  "accessors": [
    {
      "bufferView": 2,
      "componentType": 5126,
      "count": 65532,
      "max": [
        0.14612999558448792,
        0.09562399983406067,
        0.4040040075778961
      ],
      "min": [
        -0.08857399970293045,
        -0.13997699320316315,
        0.0015409999759867787
      ],
      "type": "VEC3"
    },
    {
      "bufferView": 2,
      "byteOffset": 786384,
      "componentType": 5126,
      "count": 65532,
      "max": [
        0.9999898672103882,
        0.9999735355377197,
        0.9999548196792603
      ],
      "min": [
        -0.9999940395355225,
        -0.9999890327453613,
        -0.9999961853027344
      ],
      "type": "VEC3"
    },
    {
      "bufferView": 3,
      "componentType": 5126,
      "count": 65532,
      "max": [
        1.0,
        0.9983904957771301,
        0.9999999403953552,
        1.0
      ],
      "min": [
        -1.0,
        -0.9999948143959045,
        -1.0,
        -1.0
      ],
      "type": "VEC4"
    },
    {
      "bufferView": 1,
      "componentType": 5126,
      "count": 65532,
      "max": [
        0.9997349977493286,
        0.9987789988517761
      ],
      "min": [
        0.00024399999529123306,
        0.00025099999038502574
      ],
      "type": "VEC2"
    },
    {
      "bufferView": 0,
      "componentType": 5125,
      "count": 236682,
      "type": "SCALAR"
    },
    {
      "bufferView": 2,
      "byteOffset": 1572768,
      "componentType": 5126,
      "count": 26144,
      "max": [
        0.08887200057506561,
        0.0777750015258789,
        0.4325979948043823
      ],
      "min": [
        -0.09707199782133102,
        -0.08117800205945969,
        0.015267999842762947
      ],
      "type": "VEC3"
    },
    {
      "bufferView": 2,
      "byteOffset": 1886496,
      "componentType": 5126,
      "count": 26144,
      "max": [
        0.9999898672103882,
        0.999795138835907,
        0.999968409538269
      ],
      "min": [
        -0.9997046589851379,
        -0.9998806715011597,
        -0.9979127645492554
      ],
      "type": "VEC3"
    },
    {
      "bufferView": 3,
      "byteOffset": 1048512,
      "componentType": 5126,
      "count": 26144,
      "max": [
        1.0,
        0.9987996220588684,
        0.9999992251396179,
        1.0
      ],
      "min": [
        -0.9999980330467224,
        -0.9993528127670288,
        -0.999999463558197,
        -1.0
      ],
      "type": "VEC4"
    },
    {
      "bufferView": 1,
      "byteOffset": 524256,
      "componentType": 5126,
      "count": 26144,
      "max": [
        0.9997450113296509,
        0.9948729872703552
      ],
      "min": [
        0.00024399999529123306,
        0.0002530000056140125
      ],
      "type": "VEC2"
    },
    {
      "bufferView": 0,
      "byteOffset": 946728,
      "componentType": 5125,
      "count": 62982,
      "type": "SCALAR"
    }
  ],
  "asset": {
    "extras": {
      "author": "Second Studio (https://sketchfab.com/kayaaku)",
      "license": "CC-BY-4.0 (http://creativecommons.org/licenses/by/4.0/)",
      "source": "https://sketchfab.com/3d-models/potted-plant-b9bbb7b0c02f4fb29976bb1d004cb2d9",
      "title": "Potted plant"
    },
    "generator": "Sketchfab-13.58.0",
    "version": "2.0"
  },
  "bufferViews": [
    {
      "buffer": 0,
      "byteLength": 1198656,
      "name": "floatBufferViews",
      "target": 34963
    },
    {
      "buffer": 0,
      "byteLength": 733408,
      "byteOffset": 1198656,
      "byteStride": 8,
      "name": "floatBufferViews",
      "target": 34962
    },
    {
      "buffer": 0,
      "byteLength": 2200224,
      "byteOffset": 1932064,
      "byteStride": 12,
      "name": "floatBufferViews",
      "target": 34962
    },
    {
      "buffer": 0,
      "byteLength": 1466816,
      "byteOffset": 4132288,
      "byteStride": 16,
      "name": "floatBufferViews",
      "target": 34962
    }
  ],
  "buffers": [
    {
      "byteLength": 5599104,
      "uri": "scene.bin"
    }
  ],
  "images": [
    {
      "uri": "textures/model_u1_v1_baseColor.jpeg"
    },
    {
      "uri": "textures/model_u1_v1_normal.png"
    }
  ],
  "materials": [
    {
      "doubleSided": true,
      "name": "model_u1_v1",
      "normalTexture": {
        "index": 1
      },
      "pbrMetallicRoughness": {
        "baseColorTexture": {
          "index": 0
        },
        "metallicFactor": 0.0
      }
    }
  ],
  "meshes": [
    {
      "name": "Object_0",
      "primitives": [
        {
          "attributes": {
            "NORMAL": 1,
            "POSITION": 0,
            "TANGENT": 2,
            "TEXCOORD_0": 3
          },
          "indices": 4,
          "material": 0,
          "mode": 4
        }
      ]
    },
    {
      "name": "Object_1",
      "primitives": [
        {
          "attributes": {
            "NORMAL": 6,
            "POSITION": 5,
            "TANGENT": 7,
            "TEXCOORD_0": 8
          },
          "indices": 9,
          "material": 0,
          "mode": 4
        }
      ]
    }
  ],
  "nodes": [
    {
      "children": [
        1
      ],
      "matrix": [
        1.0,
        0.0,
        0.0,
        0.0,
        0.0,
        2.220446049250313e-16,
        -1.0,
        0.0,
        0.0,
        1.0,
        2.220446049250313e-16,
        0.0,
        0.0,
        0.0,
        0.0,
        1.0
      ],
      "name": "Sketchfab_model"
    },
    {
      "children": [
        2,
        3
      ],
      "name": "ueki.obj.cleaner.materialmerger.gles"
    },
    {
      "mesh": 0,
      "name": "Object_2"
    },
    {
      "mesh": 1,
      "name": "Object_3"
    }
  ],
  "samplers": [
    {
      "magFilter": 9729,
      "minFilter": 9987,
      "wrapS": 10497,
      "wrapT": 10497
    }
  ],
  "scene": 0,
  "scenes": [
    {
      "name": "Sketchfab_Scene",
      "nodes": [
        0
      ]
    }
  ],
  "textures": [
    {
      "sampler": 0,
      "source": 0
    },
    {
      "sampler": 0,
      "source": 1
    }
  ]
}
