{
  "accessors": [
    {
      "bufferView": 2,
      "componentType": 5126,
      "count": 38236,
      "max": [
        470.41400146484375,
        -34.78450012207031,
        244.2100067138672
      ],
      "min": [
        -404.9460144042969,
        -365.3739929199219,
        -241.5500030517578
      ],
      "type": "VEC3"
    },
    {
      "bufferView": 2,
      "byteOffset": 458832,
      "componentType": 5126,
      "count": 38236,
      "max": [
        0.9999110102653503,
        0.9996428489685059,
        0.9983409643173218
      ],
      "min": [
        -0.9999110102653503,
        -0.9996421933174133,
        -0.9983364343643188
      ],
      "type": "VEC3"
    },
    {
      "bufferView": 1,
      "componentType": 5126,
      "count": 38236,
      "max": [
        0.9994382858276367,
        0.99951171875
      ],
      "min": [
        0.0004826254735235125,
        0.53271484375
      ],
      "type": "VEC2"
    },
    {
      "bufferView": 1,
      "byteOffset": 305888,
      "componentType": 5126,
      "count": 38236,
      "max": [
        0.9994382858276367,
        0.99951171875
      ],
      "min": [
        0.0004826254735235125,
        0.53271484375
      ],
      "type": "VEC2"
    },
    {
      "bufferView": 1,
      "byteOffset": 611776,
      "componentType": 5126,
      "count": 38236,
      "max": [
        0.9994382858276367,
        0.99951171875
      ],
      "min": [
        0.0004826254735235125,
        0.53271484375
      ],
      "type": "VEC2"
    },
    {
      "bufferView": 1,
      "byteOffset": 917664,
      "componentType": 5126,
      "count": 38236,
      "max": [
        0.9994382858276367,
        0.99951171875
      ],
      "min": [
        0.0004826254735235125,
        0.53271484375
      ],
      "type": "VEC2"
    },
    {
      "bufferView": 1,
      "byteOffset": 1223552,
      "componentType": 5126,
      "count": 38236,
      "max": [
        0.9994382858276367,
        0.99951171875
      ],
      "min": [
        0.0004826254735235125,
        0.53271484375
      ],
      "type": "VEC2"
    },
    {
      "bufferView": 1,
      "byteOffset": 1529440,
      "componentType": 5126,
      "count": 38236,
      "max": [
        0.9994382858276367,
        0.99951171875
      ],
      "min": [
        0.0004826254735235125,
        0.53271484375
      ],
      "type": "VEC2"
    },
    {
      "bufferView": 1,
      "byteOffset": 1835328,
      "componentType": 5126,
      "count": 38236,
      "max": [
        0.9994382858276367,
        0.99951171875
      ],
      "min": [
        0.0004826254735235125,
        0.53271484375
      ],
      "type": "VEC2"
    },
    {
      "bufferView": 1,
      "byteOffset": 2141216,
      "componentType": 5126,
      "count": 38236,
      "max": [
        0.9994382858276367,
        0.99951171875
      ],
      "min": [
        0.0004826254735235125,
        0.53271484375
      ],
      "type": "VEC2"
    },
    {
      "bufferView": 1,
      "byteOffset": 2447104,
      "componentType": 5126,
      "count": 38236,
      "max": [
        0.9994382858276367,
        0.99951171875
      ],
      "min": [
        0.0004826254735235125,
        0.53271484375
      ],
      "type": "VEC2"
    },
    {
      "bufferView": 0,
      "componentType": 5125,
      "count": 38400,
      "type": "SCALAR"
    },
    {
      "bufferView": 2,
      "byteOffset": 917664,
      "componentType": 5126,
      "count": 120,
      "max": [
        46.582801818847656,
        -45.57360076904297,
        24.91320037841797
      ],
      "min": [
        -23.243600845336914,
        -115.4000015258789,
        24.91320037841797
      ],
      "type": "VEC3"
    },
    {
      "bufferView": 2,
      "byteOffset": 919104,
      "componentType": 5126,
      "count": 120,
      "max": [
        0.0,
        0.0,
        1.0
      ],
      "min": [
        0.0,
        0.0,
        1.0
      ],
      "type": "VEC3"
    },
    {
      "bufferView": 1,
      "byteOffset": 2752992,
      "componentType": 5126,
      "count": 120,
      "max": [
        0.9999513626098633,
        0.9999505281448364
      ],
      "min": [
        4.869699478149414e-05,
        4.941225051879883e-05
      ],
      "type": "VEC2"
    },
    {
      "bufferView": 1,
      "byteOffset": 2753952,
      "componentType": 5126,
      "count": 120,
      "max": [
        0.9999513626098633,
        0.9999505281448364
      ],
      "min": [
        4.869699478149414e-05,
        4.941225051879883e-05
      ],
      "type": "VEC2"
    },
    {
      "bufferView": 1,
      "byteOffset": 2754912,
      "componentType": 5126,
      "count": 120,
      "max": [
        0.9999513626098633,
        0.9999505281448364
      ],
      "min": [
        4.869699478149414e-05,
        4.941225051879883e-05
      ],
      "type": "VEC2"
    },
    {
      "bufferView": 1,
      "byteOffset": 2755872,
      "componentType": 5126,
      "count": 120,
      "max": [
        0.9999513626098633,
        0.9999505281448364
      ],
      "min": [
        4.869699478149414e-05,
        4.941225051879883e-05
      ],
      "type": "VEC2"
    },
    {
      "bufferView": 1,
      "byteOffset": 2756832,
      "componentType": 5126,
      "count": 120,
      "max": [
        0.9999513626098633,
        0.9999505281448364
      ],
      "min": [
        4.869699478149414e-05,
        4.941225051879883e-05
      ],
      "type": "VEC2"
    },
    {
      "bufferView": 1,
      "byteOffset": 2757792,
      "componentType": 5126,
      "count": 120,
      "max": [
        0.9999513626098633,
        0.9999505281448364
      ],
      "min": [
        4.869699478149414e-05,
        4.941225051879883e-05
      ],
      "type": "VEC2"
    },
    {
      "bufferView": 1,
      "byteOffset": 2758752,
      "componentType": 5126,
      "count": 120,
      "max": [
        0.9999513626098633,
        0.9999505281448364
      ],
      "min": [
        4.869699478149414e-05,
        4.941225051879883e-05
      ],
      "type": "VEC2"
    },
    {
      "bufferView": 1,
      "byteOffset": 2759712,
      "componentType": 5126,
      "count": 120,
      "max": [
        0.9999513626098633,
        0.9999505281448364
      ],
      "min": [
        4.869699478149414e-05,
        4.941225051879883e-05
      ],
      "type": "VEC2"
    },
    {
      "bufferView": 1,
      "byteOffset": 2760672,
      "componentType": 5126,
      "count": 120,
      "max": [
        0.9999513626098633,
        0.9999505281448364
      ],
      "min": [
        4.869699478149414e-05,
        4.941225051879883e-05
      ],
      "type": "VEC2"
    },
    {
      "bufferView": 0,
      "byteOffset": 153600,
      "componentType": 5125,
      "count": 354,
      "type": "SCALAR"
    },
    {
      "bufferView": 2,
      "byteOffset": 920544,
      "componentType": 5126,
      "count": 636,
      "max": [
        46.582801818847656,
        -45.57360076904297,
        24.91320037841797
      ],
      "min": [
        -23.243600845336914,
        -115.4000015258789,
        -44.91320037841797
      ],
      "type": "VEC3"
    },
    {
      "bufferView": 2,
      "byteOffset": 928176,
      "componentType": 5126,
      "count": 636,
      "max": [
        0.9996580481529236,
        0.9996581077575684,
        1.2579386748257093e-05
      ],
      "min": [
        -0.999656617641449,
        -0.9996550679206848,
        -1.0
      ],
      "type": "VEC3"
    },
    {
      "bufferView": 1,
      "byteOffset": 2761632,
      "componentType": 5126,
      "count": 636,
      "max": [
        0.9449738264083862,
        0.9999405145645142
      ],
      "min": [
        8.672475814819336e-06,
        4.13060188293457e-05
      ],
      "type": "VEC2"
    },
    {
      "bufferView": 1,
      "byteOffset": 2766720,
      "componentType": 5126,
      "count": 636,
      "max": [
        0.9449738264083862,
        0.9999405145645142
      ],
      "min": [
        8.672475814819336e-06,
        4.13060188293457e-05
      ],
      "type": "VEC2"
    },
    {
      "bufferView": 1,
      "byteOffset": 2771808,
      "componentType": 5126,
      "count": 636,
      "max": [
        0.9449738264083862,
        0.9999405145645142
      ],
      "min": [
        8.672475814819336e-06,
        4.13060188293457e-05
      ],
      "type": "VEC2"
    },
    {
      "bufferView": 1,
      "byteOffset": 2776896,
      "componentType": 5126,
      "count": 636,
      "max": [
        0.9449738264083862,
        0.9999405145645142
      ],
      "min": [
        8.672475814819336e-06,
        4.13060188293457e-05
      ],
      "type": "VEC2"
    },
    {
      "bufferView": 1,
      "byteOffset": 2781984,
      "componentType": 5126,
      "count": 636,
      "max": [
        0.9449738264083862,
        0.9999405145645142
      ],
      "min": [
        8.672475814819336e-06,
        4.13060188293457e-05
      ],
      "type": "VEC2"
    },
    {
      "bufferView": 1,
      "byteOffset": 2787072,
      "componentType": 5126,
      "count": 636,
      "max": [
        0.9449738264083862,
        0.9999405145645142
      ],
      "min": [
        8.672475814819336e-06,
        4.13060188293457e-05
      ],
      "type": "VEC2"
    },
    {
      "bufferView": 1,
      "byteOffset": 2792160,
      "componentType": 5126,
      "count": 636,
      "max": [
        0.9449738264083862,
        0.9999405145645142
      ],
      "min": [
        8.672475814819336e-06,
        4.13060188293457e-05
      ],
      "type": "VEC2"
    },
    {
      "bufferView": 1,
      "byteOffset": 2797248,
      "componentType": 5126,
      "count": 636,
      "max": [
        0.9449738264083862,
        0.9999405145645142
      ],
      "min": [
        8.672475814819336e-06,
        4.13060188293457e-05
      ],
      "type": "VEC2"
    },
    {
      "bufferView": 1,
      "byteOffset": 2802336,
      "componentType": 5126,
      "count": 636,
      "max": [
        0.9449738264083862,
        0.9999405145645142
      ],
      "min": [
        8.672475814819336e-06,
        4.13060188293457e-05
      ],
      "type": "VEC2"
    },
    {
      "bufferView": 0,
      "byteOffset": 155016,
      "componentType": 5125,
      "count": 1074,
      "type": "SCALAR"
    },
    {
      "bufferView": 2,
      "byteOffset": 935808,
      "componentType": 5126,
      "count": 38234,
      "max": [
        470.41400146484375,
        -34.78450012207031,
        244.2100067138672
      ],
      "min": [
        -404.9460144042969,
        -365.3739929199219,
        -241.5500030517578
      ],
      "type": "VEC3"
    },
    {
      "bufferView": 2,
      "byteOffset": 1394616,
      "componentType": 5126,
      "count": 38234,
      "max": [
        0.9999110102653503,
        0.9996428489685059,
        0.9983409643173218
      ],
      "min": [
        -0.9999110102653503,
        -0.9996421933174133,
        -0.9983364343643188
      ],
      "type": "VEC3"
    },
    {
      "bufferView": 1,
      "byteOffset": 2807424,
      "componentType": 5126,
      "count": 38234,
      "max": [
        0.9997598528862,
        0.99951171875
      ],
      "min": [
        0.00024015369126573205,
        0.030159711837768555
      ],
      "type": "VEC2"
    },
    {
      "bufferView": 1,
      "byteOffset": 3113296,
      "componentType": 5126,
      "count": 38234,
      "max": [
        0.9997598528862,
        0.99951171875
      ],
      "min": [
        0.00024015369126573205,
        0.030159711837768555
      ],
      "type": "VEC2"
    },
    {
      "bufferView": 1,
      "byteOffset": 3419168,
      "componentType": 5126,
      "count": 38234,
      "max": [
        0.9997598528862,
        0.99951171875
      ],
      "min": [
        0.00024015369126573205,
        0.030159711837768555
      ],
      "type": "VEC2"
    },
    {
      "bufferView": 1,
      "byteOffset": 3725040,
      "componentType": 5126,
      "count": 38234,
      "max": [
        0.9997598528862,
        0.99951171875
      ],
      "min": [
        0.00024015369126573205,
        0.030159711837768555
      ],
      "type": "VEC2"
    },
    {
      "bufferView": 1,
      "byteOffset": 4030912,
      "componentType": 5126,
      "count": 38234,
      "max": [
        0.9997598528862,
        0.99951171875
      ],
      "min": [
        0.00024015369126573205,
        0.030159711837768555
      ],
      "type": "VEC2"
    },
    {
      "bufferView": 1,
      "byteOffset": 4336784,
      "componentType": 5126,
      "count": 38234,
      "max": [
        0.9997598528862,
        0.99951171875
      ],
      "min": [
        0.00024015369126573205,
        0.030159711837768555
      ],
      "type": "VEC2"
    },
    {
      "bufferView": 1,
      "byteOffset": 4642656,
      "componentType": 5126,
      "count": 38234,
      "max": [
        0.9997598528862,
        0.99951171875
      ],
      "min": [
        0.00024015369126573205,
        0.030159711837768555
      ],
      "type": "VEC2"
    },
    {
      "bufferView": 1,
      "byteOffset": 4948528,
      "componentType": 5126,
      "count": 38234,
      "max": [
        0.9997598528862,
        0.99951171875
      ],
      "min": [
        0.00024015369126573205,
        0.030159711837768555
      ],
      "type": "VEC2"
    },
    {
      "bufferView": 1,
      "byteOffset": 5254400,
      "componentType": 5126,
      "count": 38234,
      "max": [
        0.9997598528862,
        0.99951171875
      ],
      "min": [
        0.00024015369126573205,
        0.030159711837768555
      ],
      "type": "VEC2"
    },
    {
      "bufferView": 0,
      "byteOffset": 159312,
      "componentType": 5125,
      "count": 38400,
      "type": "SCALAR"
    }
  ],
  "asset": {
    "extras": {
      "author": "House Doctor (https://sketchfab.com/chin4grci4)",
      "license": "CC-BY-4.0 (http://creativecommons.org/licenses/by/4.0/)",
      "source": "https://sketchfab.com/3d-models/baby-changer-11265ec9a82a4d6699e4385ab481a563",
      "title": "Baby Changer"
    },
    "generator": "Sketchfab-12.68.0",
    "version": "2.0"
  },
  "bufferViews": [
    {
      "buffer": 0,
      "byteLength": 312912,
      "name": "floatBufferViews",
      "target": 34963
    },
    {
      "buffer": 0,
      "byteLength": 5560272,
      "byteOffset": 312912,
      "byteStride": 8,
      "name": "floatBufferViews",
      "target": 34962
    },
    {
      "buffer": 0,
      "byteLength": 1853424,
      "byteOffset": 5873184,
      "byteStride": 12,
      "name": "floatBufferViews",
      "target": 34962
    }
  ],
  "buffers": [
    {
      "byteLength": 7726608,
      "uri": "scene.bin"
    }
  ],
  "images": [
    {
      "uri": "textures/Material_844_baseColor.png"
    },
    {
      "uri": "textures/Material_848_baseColor.png"
    },
    {
      "uri": "textures/Material_850_baseColor.png"
    },
    {
      "uri": "textures/Material_846_baseColor.png"
    }
  ],
  "materials": [
    {
      "doubleSided": true,
      "name": "Material_844",
      "pbrMetallicRoughness": {
        "baseColorTexture": {
          "index": 0
        },
        "metallicFactor": 0.0
      }
    },
    {
      "doubleSided": true,
      "name": "Material_848",
      "pbrMetallicRoughness": {
        "baseColorTexture": {
          "index": 1
        },
        "metallicFactor": 0.0
      }
    },
    {
      "doubleSided": true,
      "name": "Material_850",
      "pbrMetallicRoughness": {
        "baseColorTexture": {
          "index": 2
        },
        "metallicFactor": 0.0
      }
    },
    {
      "doubleSided": true,
      "name": "Material_846",
      "pbrMetallicRoughness": {
        "baseColorTexture": {
          "index": 3
        },
        "metallicFactor": 0.0
      }
    }
  ],
  "meshes": [
    {
      "name": "node_id33_Material_844_0",
      "primitives": [
        {
          "attributes": {
            "NORMAL": 1,
            "POSITION": 0,
            "TEXCOORD_0": 2,
            "TEXCOORD_1": 3,
            "TEXCOORD_2": 4,
            "TEXCOORD_3": 5,
            "TEXCOORD_4": 6,
            "TEXCOORD_5": 7,
            "TEXCOORD_6": 8,
            "TEXCOORD_7": 9,
            "TEXCOORD_8": 10
          },
          "indices": 11,
          "material": 0,
          "mode": 4
        }
      ]
    },
    {
      "name": "node_id30_Material_848_0",
      "primitives": [
        {
          "attributes": {
            "NORMAL": 13,
            "POSITION": 12,
            "TEXCOORD_0": 14,
            "TEXCOORD_1": 15,
            "TEXCOORD_2": 16,
            "TEXCOORD_3": 17,
            "TEXCOORD_4": 18,
            "TEXCOORD_5": 19,
            "TEXCOORD_6": 20,
            "TEXCOORD_7": 21,
            "TEXCOORD_8": 22
          },
          "indices": 23,
          "material": 1,
          "mode": 4
        }
      ]
    },
    {
      "name": "node_id30_Material_850_0",
      "primitives": [
        {
          "attributes": {
            "NORMAL": 25,
            "POSITION": 24,
            "TEXCOORD_0": 26,
            "TEXCOORD_1": 27,
            "TEXCOORD_2": 28,
            "TEXCOORD_3": 29,
            "TEXCOORD_4": 30,
            "TEXCOORD_5": 31,
            "TEXCOORD_6": 32,
            "TEXCOORD_7": 33,
            "TEXCOORD_8": 34
          },
          "indices": 35,
          "material": 2,
          "mode": 4
        }
      ]
    },
    {
      "name": "node_id33_Material_846_0",
      "primitives": [
        {
          "attributes": {
            "NORMAL": 37,
            "POSITION": 36,
            "TEXCOORD_0": 38,
            "TEXCOORD_1": 39,
            "TEXCOORD_2": 40,
            "TEXCOORD_3": 41,
            "TEXCOORD_4": 42,
            "TEXCOORD_5": 43,
            "TEXCOORD_6": 44,
            "TEXCOORD_7": 45,
            "TEXCOORD_8": 46
          },
          "indices": 47,
          "material": 3,
          "mode": 4
        }
      ]
    }
  ],
  "nodes": [
    {
      "children": [
        1
      ],
      "matrix": [
        1.0,
        0.0,
        0.0,
        0.0,
        0.0,
        2.220446049250313e-16,
        -1.0,
        0.0,
        0.0,
        1.0,
        2.220446049250313e-16,
        0.0,
        0.0,
        0.0,
        0.0,
        1.0
      ],
      "name": "Sketchfab_model"
    },
    {
      "children": [
        2
      ],
      "matrix": [
        0.009999999776482582,
        0.0,
        0.0,
        0.0,
        0.0,
        0.0,
        0.009999999776482582,
        0.0,
        0.0,
        -0.009999999776482582,
        0.0,
        0.0,
        0.0,
        0.0,
        0.0,
        1.0
      ],
      "name": "2b61125167294ed4ab936cc600b4b222.fbx"
    },
    {
      "children": [
        3
      ],
      "name": "RootNode"
    },
    {
      "children": [
        4
      ],
      "name": "root"
    },
    {
      "children": [
        5,
        7,
        11
      ],
      "matrix": [
        -0.0009999998146668077,
        1.2246465721796523e-19,
        0.0,
        0.0,
        1.224646857314955e-19,
        0.0010000000474974513,
        1.224646857314955e-19,
        0.0,
        1.4997595047065894e-35,
        1.2246465721796523e-19,
        -0.0009999998146668077,
        0.0,
        -0.053078994154930115,
        -0.2724389433860779,
        0.5119999647140503,
        1.0
      ],
      "name": "node_id33"
    },
    {
      "children": [
        6
      ],
      "matrix": [
        0.5849022269248962,
        0.0,
        0.0,
        0.0,
        0.0,
        8.588981534240397e-18,
        -0.1402687132358551,
        0.0,
        -0.0,
        0.5849022269248962,
        3.5814932000886654e-17,
        0.0,
        -19.14619255065918,
        -0.7779083251953125,
        238.648193359375,
        1.0
      ],
      "name": "Object_5"
    },
    {
      "mesh": 0,
      "name": "node_id33_Material_844_0"
    },
    {
      "children": [
        8,
        9
      ],
      "matrix": [
        1.1731184720993042,
        2.4651903288156613e-32,
        -3.135469652984296e-48,
        0.0,
        2.465140478058323e-32,
        -1.1730947494505501,
        5.593743707497876e-07,
        0.0,
        2.579311969671848e-40,
        -1.2274259242245506e-08,
        -0.025741023942825254,
        0.0,
        -13.689746856689453,
        -84.17512512207031,
        222.74264526367188,
        1.0
      ],
      "name": "node_id30"
    },
    {
      "mesh": 1,
      "name": "node_id30_Material_848_0"
    },
    {
      "children": [
        10
      ],
      "matrix": [
        1.0,
        -4.6661246231809346e-45,
        6.979998625279014e-38,
        0.0,
        4.666124623180698e-45,
        1.0,
        3.3881317890172014e-21,
        0.0,
        -6.979998625279014e-38,
        -3.3881317890172014e-21,
        1.0,
        0.0,
        0.0,
        0.0,
        0.0,
        1.0
      ],
      "name": "node_id30"
    },
    {
      "mesh": 2,
      "name": "node_id30_Material_850_0"
    },
    {
      "children": [
        12
      ],
      "matrix": [
        1.0,
        3.2731925916201046e-64,
        -5.4096762685787125e-48,
        0.0,
        -3.273192591620106e-64,
        1.0,
        -2.465190328815662e-32,
        0.0,
        5.4096762685787125e-48,
        2.465190328815662e-32,
        1.0,
        0.0,
        0.0,
        0.0,
        0.0,
        1.0
      ],
      "name": "node_id33"
    },
    {
      "children": [
        13
      ],
      "matrix": [
        0.5299836993217468,
        0.0,
        0.0,
        0.0,
        0.0,
        1.0418298318220638e-17,
        -0.170143723487854,
        0.0,
        -0.0,
        0.5299836993217468,
        3.2452142048732524e-17,
        0.0,
        -17.348480224609375,
        -0.7055206298828125,
        217.33860778808594,
        1.0
      ],
      "name": "Object_12"
    },
    {
      "mesh": 3,
      "name": "node_id33_Material_846_0"
    }
  ],
  "samplers": [
    {
      "magFilter": 9729,
      "minFilter": 9987,
      "wrapS": 10497,
      "wrapT": 10497
    }
  ],
  "scene": 0,
  "scenes": [
    {
      "name": "Sketchfab_Scene",
      "nodes": [
        0
      ]
    }
  ],
  "textures": [
    {
      "sampler": 0,
      "source": 0
    },
    {
      "sampler": 0,
      "source": 1
    },
    {
      "sampler": 0,
      "source": 2
    },
    {
      "sampler": 0,
      "source": 3
    }
  ]
}
