{
  "accessors": [
    {
      "bufferView": 2,
      "componentType": 5126,
      "count": 50668,
      "max": [
        0.130998894572258,
        0.414458692073822,
        0.4129472076892853
      ],
      "min": [
        0.01063632220029831,
        -0.45082250237464905,
        -0.5628169178962708
      ],
      "type": "VEC3"
    },
    {
      "bufferView": 2,
      "byteOffset": 608016,
      "componentType": 5126,
      "count": 50668,
      "max": [
        0.9997134804725647,
        1.0,
        1.0
      ],
      "min": [
        -0.9999998807907104,
        -1.0,
        -1.0
      ],
      "type": "VEC3"
    },
    {
      "bufferView": 1,
      "componentType": 5126,
      "count": 50668,
      "max": [
        0.9955241680145264,
        0.9999570250511169
      ],
      "min": [
        0.00041320890886709094,
        4.3948944039584603e-07
      ],
      "type": "VEC2"
    },
    {
      "bufferView": 1,
      "byteOffset": 405344,
      "componentType": 5126,
      "count": 50668,
      "max": [
        0.9955241680145264,
        0.9999570250511169
      ],
      "min": [
        0.00041320890886709094,
        4.3948944039584603e-07
      ],
      "type": "VEC2"
    },
    {
      "bufferView": 1,
      "byteOffset": 810688,
      "componentType": 5126,
      "count": 50668,
      "max": [
        0.9955241680145264,
        0.9999570250511169
      ],
      "min": [
        0.00041320890886709094,
        4.3948944039584603e-07
      ],
      "type": "VEC2"
    },
    {
      "bufferView": 1,
      "byteOffset": 1216032,
      "componentType": 5126,
      "count": 50668,
      "max": [
        0.9955241680145264,
        0.9999570250511169
      ],
      "min": [
        0.00041320890886709094,
        4.3948944039584603e-07
      ],
      "type": "VEC2"
    },
    {
      "bufferView": 1,
      "byteOffset": 1621376,
      "componentType": 5126,
      "count": 50668,
      "max": [
        0.9955241680145264,
        0.9999570250511169
      ],
      "min": [
        0.00041320890886709094,
        4.3948944039584603e-07
      ],
      "type": "VEC2"
    },
    {
      "bufferView": 0,
      "componentType": 5125,
      "count": 270129,
      "type": "SCALAR"
    }
  ],
  "asset": {
    "extras": {
      "author": "queppa (https://sketchfab.com/queppa)",
      "license": "CC-BY-NC-SA-4.0 (http://creativecommons.org/licenses/by-nc-sa/4.0/)",
      "source": "https://sketchfab.com/3d-models/baby-changing-station-9797847a2b02408592fe1b3d9c9c32a6",
      "title": "Baby Changing Station"
    },
    "generator": "Sketchfab-14.83.0",
    "version": "2.0"
  },
  "bufferViews": [
    {
      "buffer": 0,
      "byteLength": 1080516,
      "name": "floatBufferViews",
      "target": 34963
    },
    {
      "buffer": 0,
      "byteLength": 2026720,
      "byteOffset": 1080516,
      "byteStride": 8,
      "name": "floatBufferViews",
      "target": 34962
    },
    {
      "buffer": 0,
      "byteLength": 1216032,
      "byteOffset": 3107236,
      "byteStride": 12,
      "name": "floatBufferViews",
      "target": 34962
    }
  ],
  "buffers": [
    {
      "byteLength": 4323268,
      "uri": "scene.bin"
    }
  ],
  "extensionsUsed": [
    "KHR_materials_unlit"
  ],
  "images": [
    {
      "uri": "textures/material_0_baseColor.jpeg"
    }
  ],
  "materials": [
    {
      "extensions": {
        "KHR_materials_unlit": {}
      },
      "name": "material_0",
      "pbrMetallicRoughness": {
        "baseColorTexture": {
          "index": 0
        },
        "metallicFactor": 0.0
      }
    }
  ],
  "meshes": [
    {
      "name": "Object_0",
      "primitives": [
        {
          "attributes": {
            "NORMAL": 1,
            "POSITION": 0,
            "TEXCOORD_0": 2,
            "TEXCOORD_1": 3,
            "TEXCOORD_2": 4,
            "TEXCOORD_3": 5,
            "TEXCOORD_4": 6
          },
          "indices": 7,
          "material": 0,
          "mode": 4
        }
      ]
    }
  ],
  "nodes": [
    {
      "children": [
        1
      ],
      "matrix": [
        0.7692307829856873,
        0.0,
        0.0,
        0.0,
        0.0,
        1.7080354530422942e-16,
        -0.7692307829856873,
        0.0,
        0.0,
        0.7692307829856873,
        1.7080354530422942e-16,
        0.0,
        0.0,
        0.0,
        0.0,
        1.0
      ],
      "name": "Sketchfab_model"
    },
    {
      "children": [
        2
      ],
      "name": "root"
    },
    {
      "children": [
        3
      ],
      "matrix": [
        1.0,
        0.0,
        0.0,
        0.0,
        0.0,
        2.220446049250313e-16,
        1.0,
        0.0,
        0.0,
        -1.0,
        2.220446049250313e-16,
        0.0,
        0.0,
        0.0,
        0.0,
        1.0
      ],
      "name": "GLTF_SceneRootNode"
    },
    {
      "children": [
        4
      ],
      "name": "_0"
    },
    {
      "mesh": 0,
      "name": "Object_4"
    }
  ],
  "samplers": [
    {
      "magFilter": 9729,
      "minFilter": 9987,
      "wrapS": 10497,
      "wrapT": 10497
    }
  ],
  "scene": 0,
  "scenes": [
    {
      "name": "Sketchfab_Scene",
      "nodes": [
        0
      ]
    }
  ],
  "textures": [
    {
      "sampler": 0,
      "source": 0
    }
  ]
}
